<?xml version="1.0" encoding="utf-8"?>
<svg version="1.1" xmlns:xlink="http://www.w3.org/1999/xlink" width="12px" height="12px" viewBox="17 116.5  12 12" xmlns="http://www.w3.org/2000/svg">
  <path d="M 23 116.5  C 26.36 116.5  29 119.14  29 122.5  C 29 125.86  26.36 128.5  23 128.5  C 19.64 128.5  17 125.86  17 122.5  C 17 119.14  19.64 116.5  23 116.5  Z " fill-rule="nonzero" fill="#ffffff" stroke="none" />
  <path d="M 23 117  C 26.08 117  28.5 119.42  28.5 122.5  C 28.5 125.58  26.08 128  23 128  C 19.92 128  17.5 125.58  17.5 122.5  C 17.5 119.42  19.92 117  23 117  Z " stroke-width="1" stroke="#cccccc" fill="none" />
  <path d="M 23 125.5  C 21.32 125.5  20 124.18  20 122.5  C 20 120.82  21.32 119.5  23 119.5  C 24.68 119.5  26 120.82  26 122.5  C 26 124.18  24.68 125.5  23 125.5  " fill-rule="nonzero" fill="#cccccc" stroke="none" />
</svg>