<?xml version="1.0" encoding="utf-8"?>
<svg version="1.1" xmlns:xlink="http://www.w3.org/1999/xlink" width="12px" height="12px" viewBox="18 223.5  12 12" xmlns="http://www.w3.org/2000/svg">
  <path d="M 24 223.5  C 27.36 223.5  30 226.14  30 229.5  C 30 232.86  27.36 235.5  24 235.5  C 20.64 235.5  18 232.86  18 229.5  C 18 226.14  20.64 223.5  24 223.5  Z " fill-rule="nonzero" fill="#ffffff" stroke="none" />
  <path d="M 24 224  C 27.08 224  29.5 226.42  29.5 229.5  C 29.5 232.58  27.08 235  24 235  C 20.92 235  18.5 232.58  18.5 229.5  C 18.5 226.42  20.92 224  24 224  Z " stroke-width="1" stroke="#cccccc" fill="none" />
  <path d="M 24 232.5  C 22.32 232.5  21 231.18  21 229.5  C 21 227.82  22.32 226.5  24 226.5  C 25.68 226.5  27 227.82  27 229.5  C 27 231.18  25.68 232.5  24 232.5  " fill-rule="nonzero" fill="#cccccc" stroke="none" />
</svg>