<?xml version="1.0" encoding="utf-8"?>
<svg version="1.1" xmlns:xlink="http://www.w3.org/1999/xlink" width="20px" height="20px" xmlns="http://www.w3.org/2000/svg">
  <g transform="matrix(1 0 0 1 -14 -390 )">
    <path d="M 11.5494791666667 16.5494791666667  C 11.6276041666667 16.4713541666667  11.6666666666667 16.3715277777778  11.6666666666667 16.25  L 11.6666666666667 13.75  C 11.6666666666667 13.6284722222222  11.6276041666667 13.5286458333333  11.5494791666667 13.4505208333333  C 11.4713541666667 13.3723958333333  11.3715277777778 13.3333333333333  11.25 13.3333333333333  L 8.75 13.3333333333333  C 8.62847222222223 13.3333333333333  8.52864583333334 13.3723958333333  8.45052083333334 13.4505208333333  C 8.37239583333334 13.5286458333333  8.33333333333334 13.6284722222222  8.33333333333334 13.75  L 8.33333333333334 16.25  C 8.33333333333334 16.3715277777778  8.37239583333334 16.4713541666667  8.45052083333334 16.5494791666667  C 8.52864583333334 16.6276041666667  8.62847222222223 16.6666666666667  8.75 16.6666666666667  L 11.25 16.6666666666667  C 11.3715277777778 16.6666666666667  11.4713541666667 16.6276041666667  11.5494791666667 16.5494791666667  Z M 14.8372395833333 8.5546875  C 14.9457465277778 8.23350694444446  15 7.88194444444446  15 7.5  C 15 6.73611111111109  14.7591145833333 6.02864583333331  14.27734375 5.37760416666669  C 13.7955729166667 4.7265625  13.1944444444445 4.22309027777777  12.4739583333333 3.8671875  C 11.7534722222222 3.51128472222223  11.015625 3.33333333333331  10.2604166666667 3.33333333333331  C 8.15104166666666 3.33333333333331  6.54079861111111 4.2578125  5.4296875 6.10677083333331  C 5.29947916666666 6.31510416666669  5.33420138888889 6.49739583333331  5.53385416666666 6.65364583333331  L 7.25260416666666 7.95572916666669  C 7.31336805555554 8.0078125  7.39583333333334 8.03385416666669  7.5 8.03385416666669  C 7.63888888888889 8.03385416666669  7.74739583333334 7.98177083333331  7.82552083333334 7.87760416666669  C 8.28559027777777 7.28732638888891  8.65885416666666 6.88802083333331  8.9453125 6.6796875  C 9.24045138888889 6.47135416666669  9.61371527777777 6.3671875  10.0651041666667 6.3671875  C 10.4817708333333 6.3671875  10.8528645833333 6.48003472222223  11.1783854166667 6.70572916666669  C 11.50390625 6.93142361111109  11.6666666666667 7.1875  11.6666666666667 7.47395833333331  C 11.6666666666667 7.80381944444446  11.5798611111111 8.06857638888891  11.40625 8.26822916666669  C 11.2326388888889 8.46788194444446  10.9375 8.66319444444446  10.5208333333333 8.85416666666669  C 9.97395833333334 9.09722222222223  9.47265625 9.47265625  9.01692708333334 9.98046875  C 8.56119791666666 10.48828125  8.33333333333334 11.0329861111111  8.33333333333334 11.6145833333333  L 8.33333333333334 12.0833333333333  C 8.33333333333334 12.2048611111111  8.37239583333334 12.3046875  8.45052083333334 12.3828125  C 8.52864583333334 12.4609375  8.62847222222223 12.5  8.75 12.5  L 11.25 12.5  C 11.3715277777778 12.5  11.4713541666667 12.4609375  11.5494791666667 12.3828125  C 11.6276041666667 12.3046875  11.6666666666667 12.2048611111111  11.6666666666667 12.0833333333333  C 11.6666666666667 11.9184027777778  11.7599826388889 11.7035590277778  11.9466145833333 11.4388020833333  C 12.1332465277778 11.1740451388889  12.3697916666667 10.9592013888889  12.65625 10.7942708333333  C 12.9340277777778 10.6380208333333  13.1467013888889 10.5143229166667  13.2942708333333 10.4231770833333  C 13.4418402777778 10.33203125  13.6414930555555 10.1801215277778  13.8932291666667 9.96744791666669  C 14.1449652777778 9.75477430555554  14.3381076388889 9.54644097222223  14.47265625 9.34244791666669  C 14.6072048611111 9.13845486111109  14.7287326388889 8.87586805555554  14.8372395833333 8.5546875  Z M 18.6588541666667 4.98046875  C 19.5529513888889 6.51258680555554  20 8.18576388888891  20 10  C 20 11.8142361111111  19.5529513888889 13.4874131944445  18.6588541666667 15.01953125  C 17.7647569444445 16.5516493055555  16.5516493055555 17.7647569444445  15.01953125 18.6588541666667  C 13.4874131944445 19.5529513888889  11.8142361111111 20  10 20  C 8.18576388888889 20  6.51258680555554 19.5529513888889  4.98046875 18.6588541666667  C 3.44835069444446 17.7647569444445  2.23524305555554 16.5516493055555  1.34114583333334 15.01953125  C 0.447048611111114 13.4874131944445  0 11.8142361111111  0 10  C 0 8.18576388888891  0.447048611111114 6.51258680555554  1.34114583333334 4.98046875  C 2.23524305555554 3.44835069444446  3.44835069444446 2.23524305555554  4.98046875 1.34114583333331  C 6.51258680555554 0.447048611111086  8.18576388888889 0  10 0  C 11.8142361111111 0  13.4874131944445 0.447048611111086  15.01953125 1.34114583333331  C 16.5516493055555 2.23524305555554  17.7647569444445 3.44835069444446  18.6588541666667 4.98046875  Z " fill-rule="nonzero" fill="#333333" stroke="none" transform="matrix(1 0 0 1 14 390 )" />
  </g>
</svg>