<?xml version="1.0" encoding="utf-8"?>
<svg version="1.1" xmlns:xlink="http://www.w3.org/1999/xlink" width="20px" height="20px" xmlns="http://www.w3.org/2000/svg">
  <g transform="matrix(1 0 0 1 -14 -310 )">
    <path d="M 13.2161458333333 16.5494791666667  C 13.2942708333333 16.4713541666667  13.3333333333333 16.3715277777778  13.3333333333333 16.25  L 13.3333333333333 14.1666666666667  C 13.3333333333333 14.0451388888889  13.2942708333333 13.9453125  13.2161458333333 13.8671875  C 13.1380208333333 13.7890625  13.0381944444445 13.75  12.9166666666667 13.75  L 11.6666666666667 13.75  L 11.6666666666667 7.08333333333331  C 11.6666666666667 6.96180555555554  11.6276041666667 6.86197916666669  11.5494791666667 6.78385416666669  C 11.4713541666667 6.70572916666669  11.3715277777778 6.66666666666669  11.25 6.66666666666669  L 7.08333333333333 6.66666666666669  C 6.96180555555556 6.66666666666669  6.86197916666667 6.70572916666669  6.78385416666667 6.78385416666669  C 6.70572916666667 6.86197916666669  6.66666666666667 6.96180555555554  6.66666666666667 7.08333333333331  L 6.66666666666667 9.16666666666669  C 6.66666666666667 9.28819444444446  6.70572916666667 9.38802083333331  6.78385416666667 9.46614583333331  C 6.86197916666667 9.54427083333331  6.96180555555556 9.58333333333331  7.08333333333333 9.58333333333331  L 8.33333333333334 9.58333333333331  L 8.33333333333334 13.75  L 7.08333333333333 13.75  C 6.96180555555556 13.75  6.86197916666667 13.7890625  6.78385416666667 13.8671875  C 6.70572916666667 13.9453125  6.66666666666667 14.0451388888889  6.66666666666667 14.1666666666667  L 6.66666666666667 16.25  C 6.66666666666667 16.3715277777778  6.70572916666667 16.4713541666667  6.78385416666667 16.5494791666667  C 6.86197916666667 16.6276041666667  6.96180555555556 16.6666666666667  7.08333333333333 16.6666666666667  L 12.9166666666667 16.6666666666667  C 13.0381944444445 16.6666666666667  13.1380208333333 16.6276041666667  13.2161458333333 16.5494791666667  Z M 11.5494791666667 4.8828125  C 11.6276041666667 4.8046875  11.6666666666667 4.70486111111109  11.6666666666667 4.58333333333331  L 11.6666666666667 2.5  C 11.6666666666667 2.37847222222223  11.6276041666667 2.27864583333331  11.5494791666667 2.20052083333331  C 11.4713541666667 2.12239583333331  11.3715277777778 2.08333333333331  11.25 2.08333333333331  L 8.75 2.08333333333331  C 8.62847222222223 2.08333333333331  8.52864583333334 2.12239583333331  8.45052083333334 2.20052083333331  C 8.37239583333334 2.27864583333331  8.33333333333334 2.37847222222223  8.33333333333334 2.5  L 8.33333333333334 4.58333333333331  C 8.33333333333334 4.70486111111109  8.37239583333334 4.8046875  8.45052083333334 4.8828125  C 8.52864583333334 4.9609375  8.62847222222223 5  8.75 5  L 11.25 5  C 11.3715277777778 5  11.4713541666667 4.9609375  11.5494791666667 4.8828125  Z M 18.6588541666667 4.98046875  C 19.5529513888889 6.51258680555554  20 8.18576388888891  20 10  C 20 11.8142361111111  19.5529513888889 13.4874131944445  18.6588541666667 15.01953125  C 17.7647569444445 16.5516493055555  16.5516493055555 17.7647569444445  15.01953125 18.6588541666667  C 13.4874131944445 19.5529513888889  11.8142361111111 20  10 20  C 8.18576388888889 20  6.51258680555556 19.5529513888889  4.98046875 18.6588541666667  C 3.44835069444444 17.7647569444445  2.23524305555556 16.5516493055555  1.34114583333333 15.01953125  C 0.447048611111114 13.4874131944445  0 11.8142361111111  0 10  C 0 8.18576388888891  0.447048611111114 6.51258680555554  1.34114583333333 4.98046875  C 2.23524305555556 3.44835069444446  3.44835069444444 2.23524305555554  4.98046875 1.34114583333331  C 6.51258680555556 0.447048611111086  8.18576388888889 0  10 0  C 11.8142361111111 0  13.4874131944445 0.447048611111086  15.01953125 1.34114583333331  C 16.5516493055555 2.23524305555554  17.7647569444445 3.44835069444446  18.6588541666667 4.98046875  Z " fill-rule="nonzero" fill="#333333" stroke="none" transform="matrix(1 0 0 1 14 310 )" />
  </g>
</svg>