<?xml version="1.0" encoding="utf-8"?>
<svg version="1.1" xmlns:xlink="http://www.w3.org/1999/xlink" width="20px" height="20px" xmlns="http://www.w3.org/2000/svg">
  <g transform="matrix(1 0 0 1 -14 -210 )">
    <path d="M 19.2057291666667 6.11979166666666  C 19.7352430555555 7.35243055555554  20 8.64583333333334  20 10  C 20 11.3541666666667  19.7352430555555 12.6475694444445  19.2057291666667 13.8802083333333  C 18.6762152777778 15.1128472222222  17.9644097222222 16.1762152777778  17.0703125 17.0703125  C 16.1762152777778 17.9644097222222  15.1128472222222 18.6762152777778  13.8802083333333 19.2057291666667  C 12.6475694444444 19.7352430555555  11.3541666666667 20  10 20  C 8.50694444444444 20  7.08767361111111 19.6853298611111  5.7421875 19.0559895833333  C 4.39670138888889 18.4266493055555  3.25086805555556 17.5390625  2.3046875 16.3932291666667  C 2.24392361111111 16.3064236111111  2.21571180555556 16.2087673611111  2.22005208333333 16.1002604166667  C 2.22439236111111 15.9917534722222  2.26128472222223 15.9027777777778  2.33072916666667 15.8333333333333  L 4.11458333333333 14.0364583333333  C 4.20138888888889 13.9583333333333  4.30989583333333 13.9192708333333  4.44010416666667 13.9192708333333  C 4.57899305555556 13.9366319444445  4.67881944444444 13.9887152777778  4.73958333333333 14.0755208333333  C 5.37326388888889 14.9001736111111  6.15017361111111 15.5381944444445  7.0703125 15.9895833333333  C 7.99045138888889 16.4409722222222  8.96701388888889 16.6666666666667  10 16.6666666666667  C 10.9027777777778 16.6666666666667  11.7643229166667 16.4908854166667  12.5846354166667 16.1393229166667  C 13.4049479166667 15.7877604166667  14.1145833333333 15.3125  14.7135416666667 14.7135416666667  C 15.3125 14.1145833333333  15.7877604166667 13.4049479166667  16.1393229166667 12.5846354166667  C 16.4908854166667 11.7643229166667  16.6666666666667 10.9027777777778  16.6666666666667 10  C 16.6666666666667 9.09722222222223  16.4908854166667 8.23567708333334  16.1393229166667 7.41536458333334  C 15.7877604166667 6.59505208333334  15.3125 5.88541666666666  14.7135416666667 5.28645833333334  C 14.1145833333333 4.6875  13.4049479166667 4.21223958333334  12.5846354166667 3.86067708333334  C 11.7643229166667 3.50911458333334  10.9027777777778 3.33333333333334  10 3.33333333333334  C 9.14930555555556 3.33333333333334  8.33333333333333 3.48741319444446  7.55208333333333 3.79557291666666  C 6.77083333333333 4.10373263888889  6.07638888888889 4.54427083333334  5.46875 5.1171875  L 7.25260416666667 6.9140625  C 7.52170138888889 7.17447916666666  7.58246527777777 7.47395833333334  7.43489583333333 7.8125  C 7.28732638888889 8.15972222222223  7.03125 8.33333333333334  6.66666666666667 8.33333333333334  L 0.833333333333329 8.33333333333334  C 0.607638888888886 8.33333333333334  0.412326388888886 8.25086805555554  0.247395833333329 8.0859375  C 0.0824652777777715 7.92100694444446  0 7.72569444444446  0 7.5  L 0 1.66666666666666  C 0 1.30208333333334  0.173611111111114 1.04600694444446  0.520833333333329 0.8984375  C 0.859375 0.750868055555543  1.15885416666667 0.811631944444457  1.41927083333333 1.08072916666666  L 3.11197916666667 2.76041666666666  C 4.04079861111111 1.88368055555554  5.10199652777777 1.20442708333334  6.29557291666667 0.72265625  C 7.48914930555556 0.240885416666657  8.72395833333333 0  10 0  C 11.3541666666667 0  12.6475694444444 0.264756944444457  13.8802083333333 0.794270833333343  C 15.1128472222222 1.32378472222223  16.1762152777778 2.03559027777777  17.0703125 2.9296875  C 17.9644097222222 3.82378472222223  18.6762152777778 4.88715277777777  19.2057291666667 6.11979166666666  Z M 11.5494791666667 5.95052083333334  C 11.6276041666667 6.02864583333334  11.6666666666667 6.12847222222223  11.6666666666667 6.25  L 11.6666666666667 12.0833333333333  C 11.6666666666667 12.2048611111111  11.6276041666667 12.3046875  11.5494791666667 12.3828125  C 11.4713541666667 12.4609375  11.3715277777778 12.5  11.25 12.5  L 7.08333333333333 12.5  C 6.96180555555556 12.5  6.86197916666667 12.4609375  6.78385416666667 12.3828125  C 6.70572916666667 12.3046875  6.66666666666667 12.2048611111111  6.66666666666667 12.0833333333333  L 6.66666666666667 11.25  C 6.66666666666667 11.1284722222222  6.70572916666667 11.0286458333333  6.78385416666667 10.9505208333333  C 6.86197916666667 10.8723958333333  6.96180555555556 10.8333333333333  7.08333333333333 10.8333333333333  L 10 10.8333333333333  L 10 6.25  C 10 6.12847222222223  10.0390625 6.02864583333334  10.1171875 5.95052083333334  C 10.1953125 5.87239583333334  10.2951388888889 5.83333333333334  10.4166666666667 5.83333333333334  L 11.25 5.83333333333334  C 11.3715277777778 5.83333333333334  11.4713541666667 5.87239583333334  11.5494791666667 5.95052083333334  Z " fill-rule="nonzero" fill="#333333" stroke="none" transform="matrix(1 0 0 1 14 210 )" />
  </g>
</svg>