<?xml version="1.0" encoding="utf-8"?>
<svg version="1.1" xmlns:xlink="http://www.w3.org/1999/xlink" width="22px" height="20px" xmlns="http://www.w3.org/2000/svg">
  <g transform="matrix(1 0 0 1 -12 -350 )">
    <path d="M 5.86666666666667 7.14285714285717  C 5.86666666666667 8.17708333333331  6.17604166666668 9.12946428571428  6.79479166666667 10  C 5.55729166666666 10.0372023809524  4.54513888888889 10.5133928571428  3.75833333333334 11.4285714285714  L 2.22291666666666 11.4285714285714  C 1.59652777777779 11.4285714285714  1.06944444444445 11.2779017857143  0.641666666666679 10.9765625  C 0.213888888888883 10.6752232142857  0 10.234375  0 9.65401785714283  C 0 7.02752976190476  0.473611111111118 5.71428571428572  1.42083333333332 5.71428571428572  C 1.46666666666667 5.71428571428572  1.63281249999999 5.79241071428572  1.91927083333334 5.94866071428572  C 2.20572916666666 6.10491071428572  2.57812499999999 6.26302083333331  3.03645833333332 6.42299107142856  C 3.49479166666666 6.5829613095238  3.94930555555557 6.66294642857144  4.39999999999999 6.66294642857144  C 4.91180555555556 6.66294642857144  5.41979166666667 6.57738095238096  5.92395833333332 6.40625  C 5.88576388888888 6.68154761904759  5.86666666666667 6.92708333333331  5.86666666666667 7.14285714285717  Z M 19.0265625 15.9542410714286  C 19.0532986111111 16.3299851190476  19.0666666666667 16.7150297619048  19.0666666666667 17.109375  C 19.0666666666667 18.0022321428572  18.7878472222222 18.7072172619048  18.2302083333333 19.2243303571428  C 17.6725694444444 19.741443452381  16.9315972222222 20  16.0072916666667 20  L 5.99270833333333 20  C 5.06840277777779 20  4.32743055555556 19.741443452381  3.76979166666667 19.2243303571428  C 3.21215277777779 18.7072172619048  2.93333333333332 18.0022321428572  2.93333333333332 17.109375  C 2.93333333333332 16.7150297619048  2.94670138888889 16.3299851190476  2.97343750000001 15.9542410714286  C 3.00017361111112 15.5784970238095  3.05364583333335 15.1729910714286  3.13385416666666 14.7377232142857  C 3.2140625 14.3024553571428  3.31527777777776 13.8988095238095  3.4375 13.5267857142857  C 3.55972222222222 13.1547619047619  3.72395833333332 12.7920386904762  3.93020833333333 12.4386160714286  C 4.13645833333334 12.085193452381  4.37326388888888 11.7838541666667  4.64062499999999 11.5345982142857  C 4.9079861111111 11.2853422619048  5.23454861111111 11.0863095238095  5.62031250000001 10.9375  C 6.00607638888888 10.7886904761905  6.43194444444446 10.7142857142857  6.89791666666667 10.7142857142857  C 6.97430555555556 10.7142857142857  7.13854166666667 10.7942708333333  7.39062499999999 10.9542410714286  C 7.64270833333332 11.1142113095238  7.92152777777776 11.2927827380952  8.22708333333332 11.4899553571428  C 8.53263888888888 11.6871279761905  8.94131944444444 11.8656994047619  9.453125 12.0256696428572  C 9.96493055555556 12.1856398809524  10.4805555555555 12.265625  11 12.265625  C 11.5194444444445 12.265625  12.0350694444444 12.1856398809524  12.546875 12.0256696428572  C 13.0586805555556 11.8656994047619  13.4673611111111 11.6871279761905  13.7729166666667 11.4899553571428  C 14.0784722222222 11.2927827380952  14.3572916666667 11.1142113095238  14.609375 10.9542410714286  C 14.8614583333333 10.7942708333333  15.0256944444444 10.7142857142857  15.1020833333333 10.7142857142857  C 15.5680555555555 10.7142857142857  15.9939236111111 10.7886904761905  16.3796875 10.9375  C 16.7654513888889 11.0863095238095  17.0920138888889 11.2853422619048  17.359375 11.5345982142857  C 17.6267361111111 11.7838541666667  17.8635416666667 12.085193452381  18.0697916666667 12.4386160714286  C 18.2760416666667 12.7920386904762  18.4402777777778 13.1547619047619  18.5625 13.5267857142857  C 18.6847222222222 13.8988095238095  18.7859375 14.3024553571428  18.8661458333333 14.7377232142857  C 18.9463541666667 15.1729910714286  18.9998263888889 15.5784970238095  19.0265625 15.9542410714286  Z M 6.47395833333333 0.837053571428555  C 7.04687499999999 1.39508928571428  7.33333333333334 2.06845238095235  7.33333333333334 2.85714285714283  C 7.33333333333334 3.64583333333331  7.04687499999999 4.31919642857144  6.47395833333333 4.87723214285717  C 5.90104166666666 5.43526785714283  5.20972222222223 5.71428571428572  4.39999999999999 5.71428571428572  C 3.59027777777778 5.71428571428572  2.89895833333333 5.43526785714283  2.32604166666666 4.87723214285717  C 1.75312499999999 4.31919642857144  1.46666666666667 3.64583333333331  1.46666666666667 2.85714285714283  C 1.46666666666667 2.06845238095235  1.75312499999999 1.39508928571428  2.32604166666666 0.837053571428555  C 2.89895833333333 0.279017857142833  3.59027777777778 0  4.39999999999999 0  C 5.20972222222223 0  5.90104166666666 0.279017857142833  6.47395833333333 0.837053571428555  Z M 14.1109375 4.11272321428572  C 14.9703125 4.94977678571428  15.4 5.95982142857144  15.4 7.14285714285717  C 15.4 8.32589285714283  14.9703125 9.3359375  14.1109375 10.1729910714286  C 13.2515625 11.0100446428572  12.2145833333333 11.4285714285714  11 11.4285714285714  C 9.78541666666667 11.4285714285714  8.7484375 11.0100446428572  7.88906249999999 10.1729910714286  C 7.0296875 9.3359375  6.59999999999999 8.32589285714283  6.59999999999999 7.14285714285717  C 6.59999999999999 5.95982142857144  7.0296875 4.94977678571428  7.88906249999999 4.11272321428572  C 8.7484375 3.27566964285717  9.78541666666667 2.85714285714283  11 2.85714285714283  C 12.2145833333333 2.85714285714283  13.2515625 3.27566964285717  14.1109375 4.11272321428572  Z M 20.5791666666667 5.71428571428572  C 21.5263888888889 5.71428571428572  22 7.02752976190476  22 9.65401785714283  C 22 10.234375  21.7861111111111 10.6752232142857  21.3583333333333 10.9765625  C 20.9305555555556 11.2779017857143  20.4034722222222 11.4285714285714  19.7770833333333 11.4285714285714  L 18.2416666666667 11.4285714285714  C 17.4548611111111 10.5133928571428  16.4427083333333 10.0372023809524  15.2052083333333 10  C 15.8239583333333 9.12946428571428  16.1333333333333 8.17708333333331  16.1333333333333 7.14285714285717  C 16.1333333333333 6.92708333333331  16.1142361111111 6.68154761904759  16.0760416666667 6.40625  C 16.5802083333333 6.57738095238096  17.0881944444444 6.66294642857144  17.6 6.66294642857144  C 18.0506944444444 6.66294642857144  18.5052083333333 6.5829613095238  18.9635416666667 6.42299107142856  C 19.421875 6.26302083333331  19.7942708333333 6.10491071428572  20.0807291666667 5.94866071428572  C 20.3671875 5.79241071428572  20.5333333333333 5.71428571428572  20.5791666666667 5.71428571428572  Z M 19.6739583333333 0.837053571428555  C 20.246875 1.39508928571428  20.5333333333333 2.06845238095235  20.5333333333333 2.85714285714283  C 20.5333333333333 3.64583333333331  20.246875 4.31919642857144  19.6739583333333 4.87723214285717  C 19.1010416666667 5.43526785714283  18.4097222222222 5.71428571428572  17.6 5.71428571428572  C 16.7902777777778 5.71428571428572  16.0989583333333 5.43526785714283  15.5260416666667 4.87723214285717  C 14.953125 4.31919642857144  14.6666666666667 3.64583333333331  14.6666666666667 2.85714285714283  C 14.6666666666667 2.06845238095235  14.953125 1.39508928571428  15.5260416666667 0.837053571428555  C 16.0989583333333 0.279017857142833  16.7902777777778 0  17.6 0  C 18.4097222222222 0  19.1010416666667 0.279017857142833  19.6739583333333 0.837053571428555  Z " fill-rule="nonzero" fill="#333333" stroke="none" transform="matrix(1 0 0 1 12 350 )" />
  </g>
</svg>