<?xml version="1.0" encoding="utf-8"?>
<svg version="1.1" xmlns:xlink="http://www.w3.org/1999/xlink" width="80px" height="80px" xmlns="http://www.w3.org/2000/svg">
  <g transform="matrix(1 0 0 1 -100 -30 )">
    <path d="M 80 40  C 80 62.4  62.4 80  40 80  C 17.6 80  0 62.4  0 40  C 0 17.6  17.6 0  40 0  C 62.4 0  80 17.6  80 40  Z M 10 40  C 10 56.8  23.2 70  40 70  C 56.8 70  70 56.8  70 40  C 70 23.2  56.8 10  40 10  C 23.2 10  10 23.2  10 40  Z " fill-rule="nonzero" fill="#d7d7d7" stroke="none" transform="matrix(1 0 0 1 100 30 )" />
  </g>
</svg>