<?xml version="1.0" encoding="utf-8"?>
<svg version="1.1" xmlns:xlink="http://www.w3.org/1999/xlink" width="25px" height="20px" xmlns="http://www.w3.org/2000/svg">
  <g transform="matrix(1 0 0 1 -12 -170 )">
    <path d="M 21.4162646450724 11.4263445050663  C 21.4266023432116 11.4471291244479  21.4317711922812 11.4783060535204  21.4317711922812 11.5198752922837  L 21.4317711922812 19.0023382696804  C 21.4317711922812 19.272538321642  21.3335630599586 19.5063652896856  21.1371467953136 19.7038191738114  C 20.9407305306685 19.9012730579371  20.7081323225362 20  20.4393521709166 20  L 14.4848380427291 20  L 14.4848380427291 14.0140296180826  L 10.5151619572708 14.0140296180826  L 10.5151619572708 20  L 4.56064782908339 20  C 4.29186767746381 20  4.05926946933149 19.9012730579371  3.86285320468642 19.7038191738114  C 3.66643694004135 19.5063652896856  3.56822880771881 19.272538321642  3.56822880771881 19.0023382696804  L 3.56822880771881 11.5198752922837  C 3.56822880771881 11.5094829825929  3.57081323225361 11.4938945180566  3.57598208132322 11.473109898675  C 3.58115093039283 11.4523252792933  3.58373535492763 11.4367368147571  3.58373535492763 11.4263445050663  L 12.5 4.03741231488698  L 21.4162646450724 11.4263445050663  Z M 24.9982770503101 10.0779423226812  C 25.0086147484493 10.2182385035074  24.9724328049621 10.3403481423746  24.8897312198484 10.4442712392829  L 23.9283252929014 11.5978176149649  C 23.8456237077877 11.6913484021824  23.737077877326 11.7485061054819  23.6026878015162 11.7692907248636  L 23.5561681598897 11.7692907248636  C 23.4217780840799 11.7692907248636  23.3132322536182 11.7329176409457  23.2305306685045 11.6601714731099  L 12.5 2.66562743569759  L 1.76946933149552 11.6601714731099  C 1.64541695382495 11.7433099506365  1.52136457615437 11.7796830345544  1.39731219848381 11.7692907248636  C 1.26292212267402 11.7485061054819  1.15437629221227 11.6913484021824  1.07167470709855 11.5978176149649  L 0.110268780151619 10.4442712392829  C 0.0275671950379013 10.3403481423746  -0.0086147484493437 10.2182385035074  0.00172294968987016 10.0779423226812  C 0.012060647829084 9.93764614185503  0.0689179875947638 9.82592881267863  0.172294968986902 9.74279033515199  L 11.3215024121296 0.405300077942314  C 11.6523087525844 0.135100025980762  12.0451412818746 0  12.5 0  C 12.9548587181254 0  13.3476912474156 0.135100025980762  13.6784975878704 0.405300077942314  L 17.4620951068229 3.58534684333594  L 17.4620951068229 0.545596258768512  C 17.4620951068229 0.400103923096907  17.5086147484493 0.280592361652367  17.6016540317023 0.187061574434921  C 17.6946933149552 0.0935307872174462  17.8135768435562 0.0467653936087231  17.9583046175052 0.0467653936087231  L 20.9355616815989 0.0467653936087231  C 21.0802894555479 0.0467653936087231  21.1991729841489 0.0935307872174462  21.2922122674018 0.187061574434921  C 21.3852515506547 0.280592361652367  21.4317711922812 0.400103923096907  21.4317711922812 0.545596258768512  L 21.4317711922812 6.90568978955574  L 24.8277050310131 9.74279033515199  C 24.9310820124052 9.82592881267863  24.9879393521709 9.93764614185503  24.9982770503101 10.0779423226812  Z " fill-rule="nonzero" fill="#333333" stroke="none" transform="matrix(1 0 0 1 12 170 )" />
  </g>
</svg>