<?xml version="1.0" encoding="utf-8"?>
<svg version="1.1" xmlns:xlink="http://www.w3.org/1999/xlink" width="15px" height="13px" xmlns="http://www.w3.org/2000/svg">
  <g transform="matrix(1 0 0 1 -20 -91 )">
    <path d="M 12.5195429945881 6.91747159090909  C 12.6398075766687 6.96519886363636  12.699939867709 7.05170454545456  12.699939867709 7.17698863636363  L 12.699939867709 10.0227272727273  C 12.699939867709 10.7326704545455  12.4458809380637 11.3397017045454  11.9377630787733 11.8438210227273  C 11.4296452194829 12.3479403409091  10.8177991581479 12.6  10.1022248947685 12.6  L 2.59771497294047 12.6  C 1.88214070956104 12.6  1.27029464822609 12.3479403409091  0.762176788935655 11.8438210227273  C 0.254058929645218 11.3397017045454  0 10.7326704545455  0 10.0227272727273  L 0 2.57727272727273  C 0 1.86732954545454  0.254058929645218 1.26029829545453  0.762176788935655 0.756178977272725  C 1.27029464822609 0.252059659090904  1.88214070956104 0  2.59771497294047 0  L 10.1022248947685 0  C 10.4810583283223 0  10.832832230908 0.0745738636363598  11.1575466025255 0.223721590909093  C 11.247745039086 0.265482954545462  11.3018641010223 0.334090909090904  11.3199037883343 0.429545454545462  C 11.3379434756464 0.530965909090909  11.3108839446783 0.617471590909091  11.2387251954299 0.689062500000006  L 10.7967528562838 1.12755681818182  C 10.7366205652435 1.18721590909091  10.6674684305472 1.21704545454546  10.5892964521948 1.21704545454546  C 10.5712567648827 1.21704545454546  10.5441972339146 1.21107954545454  10.5081178592904 1.19914772727273  C 10.3698135898978 1.16335227272727  10.2345159350571 1.14545454545456  10.1022248947685 1.14545454545456  L 2.59771497294047 1.14545454545456  C 2.20084185207456 1.14545454545456  1.86109440769694 1.28565340909091  1.57847263980758 1.56605113636364  C 1.29585087191822 1.84644886363635  1.15453998797355 2.18352272727273  1.15453998797355 2.57727272727273  L 1.15453998797355 10.0227272727273  C 1.15453998797355 10.4164772727273  1.29585087191822 10.7535511363636  1.57847263980758 11.0339488636364  C 1.86109440769694 11.3143465909091  2.20084185207456 11.4545454545455  2.59771497294047 11.4545454545455  L 10.1022248947685 11.4545454545455  C 10.4990980156344 11.4545454545455  10.838845460012 11.3143465909091  11.1214672279014 11.0339488636364  C 11.4040889957907 10.7535511363636  11.5453998797354 10.4164772727273  11.5453998797354 10.0227272727273  L 11.5453998797354 7.74971590909091  C 11.5453998797354 7.67215909090908  11.5724594107036 7.60653409090909  11.6265784726398 7.5528409090909  L 12.2038484666266 6.98011363636364  C 12.2639807576669 6.92045454545453  12.3331328923632 6.890625  12.4113048707156 6.890625  C 12.4473842453397 6.890625  12.4834636199639 6.89957386363636  12.5195429945881 6.91747159090909  Z M 15 2.29090909090908  C 15 2.48778409090909  14.9278412507516 2.65781250000001  14.783523752255 2.80099431818182  L 7.44137101623572 10.0853693181818  C 7.29705351773902 10.2285511363636  7.12567648827421 10.3001420454545  6.92723992784126 10.3001420454545  C 6.7288033674083 10.3001420454545  6.55742633794348 10.2285511363636  6.41310883944679 10.0853693181818  L 2.53457606734818 6.23735795454544  C 2.39025856885147 6.09417613636364  2.31809981960312 5.92414772727273  2.31809981960312 5.72727272727273  C 2.31809981960312 5.53039772727273  2.39025856885147 5.36036931818181  2.53457606734818 5.21718749999999  L 3.52675886951292 4.23281249999999  C 3.67107636800962 4.08963068181818  3.84245339747445 4.01803977272728  4.0408899579074 4.01803977272728  C 4.23932651834036 4.01803977272728  4.41070354780516 4.08963068181818  4.55502104630187 4.23281249999999  L 6.92723992784126 6.58636363636364  L 12.7630787733013 0.796448863636357  C 12.907396271798 0.653267045454555  13.0787733012628 0.58167613636364  13.2772098616957 0.58167613636364  C 13.4756464221287 0.58167613636364  13.6470234515935 0.653267045454555  13.7913409500902 0.796448863636357  L 14.783523752255 1.78082386363636  C 14.9278412507516 1.92400568181819  15 2.09403409090909  15 2.29090909090908  Z " fill-rule="nonzero" fill="#666666" stroke="none" transform="matrix(1 0 0 1 20 91 )" />
  </g>
</svg>