<?xml version="1.0" encoding="utf-8"?>
<svg version="1.1" xmlns:xlink="http://www.w3.org/1999/xlink" width="15px" height="18px" xmlns="http://www.w3.org/2000/svg">
  <g transform="matrix(1 0 0 1 -20 -127 )">
    <path d="M 11.0677083333333 0.648878737541537  L 14.0548406862745 3.62608706273207  C 14.233558006536 3.80421063774347  14.3867442810458 4.04594977525895  14.5143995098039 4.35130447527848  C 14.6420547385621 4.65665917529805  14.7058823529412 4.93656765031594  14.7058823529412 5.19102990033221  L 14.7058823529412 16.1837991010358  C 14.7058823529412 16.4382613510521  14.6165236928105 16.6545542635659  14.437806372549 16.8326778385773  C 14.2590890522876 17.0108014135887  14.0420751633987 17.0998632010944  13.7867647058823 17  L 0.919117647058826 17  C 0.663807189542485 17.0998632010944  0.446793300653596 17.0108014135887  0.268075980392155 16.8326778385773  C 0.0893586601307206 16.6545542635659  0 16.4382613510521  0 16.1837991010358  L 0 0.916064100058634  C 0 0.661601850042345  0.0893586601307206 0.445308937528495  0.268075980392155 0.267185362517097  C 0.446793300653596 0.0890617875056989  0.663807189542485 0  0.919117647058826 0  L 9.49754901960785 0  C 9.75285947712419 0  10.0337009803922 0.0636155625040686  10.3400735294118 0.190846687512206  C 10.6464460784314 0.318077812520357  10.8889910130719 0.470755162530125  11.0677083333333 0.648878737541537  Z M 10.1964613970588 1.5076888313465  C 10.1198682598039 1.43135015634161  9.9890216503268 1.36137303758711  9.80392156862745 1.29775747508305  L 9.80392156862745 4.88567520031268  L 13.4037990196078 4.88567520031268  C 13.3399714052288 4.70119006905088  13.2697610294118 4.57077816591755  13.1931678921569 4.49443949091264  L 10.1964613970588 1.5076888313465  Z M 1.22549019607843 15.8784444010162  L 13.4803921568627 15.8784444010162  L 13.4803921568627 6.10709400039084  L 9.49754901960785 6.10709400039084  C 9.2422385620915 6.10709400039084  9.02522467320262 6.01803221288515  8.84650735294118 5.83990863787375  C 8.66779003267974 5.66178506286235  8.57843137254902 5.44549215034851  8.57843137254902 5.19102990033221  L 8.57843137254902 1.22141880007817  L 1.22549019607843 1.22141880007817  L 1.22549019607843 15.8784444010162  Z M 3.6764705882353 8.24457690052768  L 3.6764705882353 7.63386750048858  C 3.6764705882353 7.54480571298288  3.70519301470588 7.4716478161032  3.76263786764706 7.41439380984951  C 3.82008272058824 7.35713980359586  3.89348447712418 7.32851280046904  3.9828431372549 7.32851280046904  L 10.7230392156863 7.32851280046904  C 10.812397875817 7.32851280046904  10.8857996323529 7.35713980359586  10.9432444852941 7.41439380984951  C 11.0006893382353 7.4716478161032  11.0294117647059 7.54480571298288  11.0294117647059 7.63386750048858  L 11.0294117647059 8.24457690052768  C 11.0294117647059 8.33363868803335  11.0006893382353 8.40679658491302  10.9432444852941 8.46405059116668  C 10.8857996323529 8.52130459742037  10.812397875817 8.54993160054721  10.7230392156863 8.54993160054721  L 3.9828431372549 8.54993160054721  C 3.89348447712418 8.54993160054721  3.82008272058824 8.52130459742037  3.76263786764706 8.46405059116668  C 3.70519301470588 8.40679658491302  3.6764705882353 8.33363868803335  3.6764705882353 8.24457690052768  Z M 3.9828431372549 9.77135040062535  L 10.7230392156863 9.77135040062535  C 10.812397875817 9.77135040062535  10.8857996323529 9.79997740375219  10.9432444852941 9.85723141000588  C 11.0006893382353 9.91448541625954  11.0294117647059 9.98764331313922  11.0294117647059 10.0767051006449  L 11.0294117647059 10.687414500684  C 11.0294117647059 10.7764762881897  11.0006893382353 10.8496341850694  10.9432444852941 10.906888191323  C 10.8857996323529 10.9641421975767  10.812397875817 10.9927692007035  10.7230392156863 10.9927692007035  L 3.9828431372549 10.9927692007035  C 3.89348447712418 10.9927692007035  3.82008272058824 10.9641421975767  3.76263786764706 10.906888191323  C 3.70519301470588 10.8496341850694  3.6764705882353 10.7764762881897  3.6764705882353 10.687414500684  L 3.6764705882353 10.0767051006449  C 3.6764705882353 9.98764331313922  3.70519301470588 9.91448541625954  3.76263786764706 9.85723141000588  C 3.82008272058824 9.79997740375219  3.89348447712418 9.77135040062535  3.9828431372549 9.77135040062535  Z M 3.9828431372549 12.2141880007817  L 10.7230392156863 12.2141880007817  C 10.812397875817 12.2141880007817  10.8857996323529 12.2428150039085  10.9432444852941 12.3000690101622  C 11.0006893382353 12.3573230164159  11.0294117647059 12.4304809132956  11.0294117647059 12.5195427008013  L 11.0294117647059 13.1302521008404  C 11.0294117647059 13.219313888346  11.0006893382353 13.2924717852257  10.9432444852941 13.3497257914794  C 10.8857996323529 13.406979797733  10.812397875817 13.4356068008599  10.7230392156863 13.4356068008599  L 3.9828431372549 13.4356068008599  C 3.89348447712418 13.4356068008599  3.82008272058824 13.406979797733  3.76263786764706 13.3497257914794  C 3.70519301470588 13.2924717852257  3.6764705882353 13.219313888346  3.6764705882353 13.1302521008404  L 3.6764705882353 12.5195427008013  C 3.6764705882353 12.4304809132956  3.70519301470588 12.3573230164159  3.76263786764706 12.3000690101622  C 3.82008272058824 12.2428150039085  3.89348447712418 12.2141880007817  3.9828431372549 12.2141880007817  Z " fill-rule="nonzero" fill="#666666" stroke="none" transform="matrix(1 0 0 1 20 127 )" />
  </g>
</svg>