<?xml version="1.0" encoding="utf-8"?>
<svg version="1.1" xmlns:xlink="http://www.w3.org/1999/xlink" width="12px" height="12px" viewBox="417 116.5  12 12" xmlns="http://www.w3.org/2000/svg">
  <path d="M 423 116.5  C 426.36 116.5  429 119.14  429 122.5  C 429 125.86  426.36 128.5  423 128.5  C 419.64 128.5  417 125.86  417 122.5  C 417 119.14  419.64 116.5  423 116.5  Z " fill-rule="nonzero" fill="#ffffff" stroke="none" />
  <path d="M 423 117  C 426.08 117  428.5 119.42  428.5 122.5  C 428.5 125.58  426.08 128  423 128  C 419.92 128  417.5 125.58  417.5 122.5  C 417.5 119.42  419.92 117  423 117  Z " stroke-width="1" stroke="#cccccc" fill="none" />
  <path d="M 423 125.5  C 421.32 125.5  420 124.18  420 122.5  C 420 120.82  421.32 119.5  423 119.5  C 424.68 119.5  426 120.82  426 122.5  C 426 124.18  424.68 125.5  423 125.5  " fill-rule="nonzero" fill="#cccccc" stroke="none" />
</svg>