<?xml version="1.0" encoding="utf-8"?>
<svg version="1.1" xmlns:xlink="http://www.w3.org/1999/xlink" width="12px" height="12px" viewBox="418 197  12 12" xmlns="http://www.w3.org/2000/svg">
  <path d="M 424 197  C 427.36 197  430 199.64  430 203  C 430 206.36  427.36 209  424 209  C 420.64 209  418 206.36  418 203  C 418 199.64  420.64 197  424 197  Z " fill-rule="nonzero" fill="#ffffff" stroke="none" />
  <path d="M 424 197.5  C 427.08 197.5  429.5 199.92  429.5 203  C 429.5 206.08  427.08 208.5  424 208.5  C 420.92 208.5  418.5 206.08  418.5 203  C 418.5 199.92  420.92 197.5  424 197.5  Z " stroke-width="1" stroke="#cccccc" fill="none" />
  <path d="M 424 206  C 422.32 206  421 204.68  421 203  C 421 201.32  422.32 200  424 200  C 425.68 200  427 201.32  427 203  C 427 204.68  425.68 206  424 206  " fill-rule="nonzero" fill="#cccccc" stroke="none" />
</svg>