<?xml version="1.0" encoding="utf-8"?>
<svg version="1.1" xmlns:xlink="http://www.w3.org/1999/xlink" width="12px" height="12px" viewBox="418 223.5  12 12" xmlns="http://www.w3.org/2000/svg">
  <path d="M 424 223.5  C 427.36 223.5  430 226.14  430 229.5  C 430 232.86  427.36 235.5  424 235.5  C 420.64 235.5  418 232.86  418 229.5  C 418 226.14  420.64 223.5  424 223.5  Z " fill-rule="nonzero" fill="#ffffff" stroke="none" />
  <path d="M 424 224  C 427.08 224  429.5 226.42  429.5 229.5  C 429.5 232.58  427.08 235  424 235  C 420.92 235  418.5 232.58  418.5 229.5  C 418.5 226.42  420.92 224  424 224  Z " stroke-width="1" stroke="#cccccc" fill="none" />
  <path d="M 424 232.5  C 422.32 232.5  421 231.18  421 229.5  C 421 227.82  422.32 226.5  424 226.5  C 425.68 226.5  427 227.82  427 229.5  C 427 231.18  425.68 232.5  424 232.5  " fill-rule="nonzero" fill="#cccccc" stroke="none" />
</svg>