<?xml version="1.0" encoding="utf-8"?>
<svg version="1.1" xmlns:xlink="http://www.w3.org/1999/xlink" width="12px" height="12px" viewBox="2823 146.5  12 12" xmlns="http://www.w3.org/2000/svg">
  <path d="M 2829 146.5  C 2832.36 146.5  2835 149.14  2835 152.5  C 2835 155.86  2832.36 158.5  2829 158.5  C 2825.64 158.5  2823 155.86  2823 152.5  C 2823 149.14  2825.64 146.5  2829 146.5  Z " fill-rule="nonzero" fill="#ffffff" stroke="none" />
  <path d="M 2829 147  C 2832.08 147  2834.5 149.42  2834.5 152.5  C 2834.5 155.58  2832.08 158  2829 158  C 2825.92 158  2823.5 155.58  2823.5 152.5  C 2823.5 149.42  2825.92 147  2829 147  Z " stroke-width="1" stroke="#cccccc" fill="none" />
  <path d="M 2829 155.5  C 2827.32 155.5  2826 154.18  2826 152.5  C 2826 150.82  2827.32 149.5  2829 149.5  C 2830.68 149.5  2832 150.82  2832 152.5  C 2832 154.18  2830.68 155.5  2829 155.5  " fill-rule="nonzero" fill="#cccccc" stroke="none" />
</svg>