<?xml version="1.0" encoding="utf-8"?>
<svg version="1.1" xmlns:xlink="http://www.w3.org/1999/xlink" width="18px" height="20px" xmlns="http://www.w3.org/2000/svg">
  <g transform="matrix(1 0 0 1 -427 -1981 )">
    <path d="M 17.056640625 6.50214255852842  C 17.685546875 7.76416178929765  18 9.10848662207357  18 10.5351170568562  C 18 11.7579431438127  17.76171875 12.9258988294314  17.28515625 14.0389841137124  C 16.80859375 15.1520693979933  16.16796875 16.1123014214047  15.36328125 16.9196801839465  C 14.55859375 17.7270589464883  13.6015625 18.3698265050167  12.4921875 18.8479828595318  C 11.3828125 19.3261392140468  10.21875 19.5652173913044  9 19.5652173913044  C 7.78125 19.5652173913044  6.6171875 19.3261392140468  5.5078125 18.8479828595318  C 4.39843749999997 18.3698265050167  3.44140625000003 17.7270589464883  2.63671875 16.9196801839465  C 1.83203124999997 16.1123014214047  1.19140625000003 15.1520693979933  0.71484375 14.0389841137124  C 0.23828125 12.9258988294314  0 11.7579431438127  0 10.5351170568562  C 0 9.10848662207357  0.314453124999972 7.76416178929765  0.943359375 6.50214255852842  C 1.572265625 5.24012332775919  2.45703125000003 4.18190844481603  3.59765625 3.32749790969899  C 3.93359375000003 3.07666178929765  4.306640625 2.97867892976589  4.716796875 3.03354933110367  C 5.126953125 3.08841973244145  5.45312499999997 3.28438545150502  5.6953125 3.62144648829431  C 5.94531249999997 3.95066889632105  6.041015625 4.32104410535118  5.982421875 4.73257211538461  C 5.923828125 5.14410012541805  5.73046875 5.47528219063548  5.40234375 5.72611831103677  C 4.63671875000003 6.30617683946488  4.04492187500003 7.01557274247492  3.626953125 7.8543060200669  C 3.208984375 8.69303929765886  3 9.58664297658862  3 10.5351170568562  C 3 11.3503344481605  3.158203125 12.1283183528428  3.474609375 12.869068770903  C 3.791015625 13.6098191889632  4.21875 14.250627090301  4.7578125 14.7914924749164  C 5.296875 15.3323578595318  5.935546875 15.7615227842809  6.673828125 16.0789872491639  C 7.412109375 16.3964517140469  8.18750000000003 16.5551839464883  9 16.5551839464883  C 9.81249999999997 16.5551839464883  10.587890625 16.3964517140469  11.326171875 16.0789872491639  C 12.064453125 15.7615227842809  12.703125 15.3323578595318  13.2421875 14.7914924749164  C 13.78125 14.250627090301  14.208984375 13.6098191889632  14.525390625 12.869068770903  C 14.841796875 12.1283183528428  15 11.3503344481605  15 10.5351170568562  C 15 9.58664297658862  14.791015625 8.69303929765886  14.373046875 7.8543060200669  C 13.955078125 7.01557274247492  13.36328125 6.30617683946488  12.59765625 5.72611831103677  C 12.26953125 5.47528219063548  12.076171875 5.14410012541805  12.017578125 4.73257211538461  C 11.958984375 4.32104410535118  12.0546875 3.95066889632105  12.3046875 3.62144648829431  C 12.546875 3.28438545150502  12.875 3.08841973244145  13.2890625 3.03354933110367  C 13.703125 2.97867892976589  14.07421875 3.07666178929765  14.40234375 3.32749790969899  C 15.54296875 4.18190844481603  16.427734375 5.24012332775919  17.056640625 6.50214255852842  Z M 10.0546875 0.446801839464882  C 10.3515625 0.744669732441452  10.5 1.09740802675583  10.5 1.50501672240804  L 10.5 9.03010033444815  C 10.5 9.43770903010036  10.3515625 9.79044732441471  10.0546875 10.0883152173913  C 9.75781250000003 10.3861831103679  9.40625000000003 10.5351170568562  9 10.5351170568562  C 8.59374999999997 10.5351170568562  8.24218749999997 10.3861831103679  7.9453125 10.0883152173913  C 7.64843750000003 9.79044732441471  7.5 9.43770903010036  7.5 9.03010033444815  L 7.5 1.50501672240804  C 7.5 1.09740802675583  7.64843750000003 0.744669732441452  7.9453125 0.446801839464882  C 8.24218749999997 0.148933946488285  8.59374999999997 0  9 0  C 9.40625000000003 0  9.75781250000003 0.148933946488285  10.0546875 0.446801839464882  Z " fill-rule="nonzero" fill="#ffffff" stroke="none" transform="matrix(1 0 0 1 427 1981 )" />
  </g>
</svg>