<?xml version="1.0" encoding="utf-8"?>
<svg version="1.1" xmlns:xlink="http://www.w3.org/1999/xlink" width="322px" height="40px" xmlns="http://www.w3.org/2000/svg">
  <g transform="matrix(1 0 0 1 -17 -81 )">
    <path d="M 20 86  A 2 2 0 0 1 22 84 L 334 84  A 2 2 0 0 1 336 86 L 336 116  A 2 2 0 0 1 334 118 L 22 118  A 2 2 0 0 1 20 116 L 20 86  Z " fill-rule="nonzero" fill="#66cc66" stroke="none" />
    <path d="M 18.5 86  A 3.5 3.5 0 0 1 22 82.5 L 334 82.5  A 3.5 3.5 0 0 1 337.5 86 L 337.5 116  A 3.5 3.5 0 0 1 334 119.5 L 22 119.5  A 3.5 3.5 0 0 1 18.5 116 L 18.5 86  Z " stroke-width="3" stroke="#66cc66" fill="none" stroke-opacity="0.298039215686275" />
  </g>
</svg>