<?xml version="1.0" encoding="utf-8"?>
<svg version="1.1" xmlns:xlink="http://www.w3.org/1999/xlink" width="15px" height="9px" xmlns="http://www.w3.org/2000/svg">
  <g transform="matrix(1 0 0 1 -321 -98 )">
    <path d="M 14.8496993987976 7.11546391752576  C 14.9498997995992 7.21512027491409  15 7.32972508591064  15 7.45927835051546  C 15 7.58883161512028  14.9498997995992 7.70343642611684  14.8496993987976 7.80309278350515  L 14.0981963927856 8.55051546391752  C 13.997995991984 8.65017182130583  13.8827655310621 8.69999999999999  13.7525050100201 8.69999999999999  C 13.622244488978 8.69999999999999  13.5070140280561 8.65017182130583  13.4068136272545 8.55051546391752  L 7.5 2.67577319587627  L 1.59318637274549 8.55051546391752  C 1.49298597194388 8.65017182130583  1.37775551102203 8.69999999999999  1.24749498997994 8.69999999999999  C 1.11723446893785 8.69999999999999  1.002004008016 8.65017182130583  0.901803607214447 8.55051546391752  L 0.150300601202389 7.80309278350515  C 0.0501002004008342 7.70343642611684  0 7.58883161512028  0 7.45927835051546  C 0 7.32972508591064  0.0501002004008342 7.21512027491409  0.150300601202389 7.11546391752576  L 7.15430861723445 0.149484536082468  C 7.25450901803606 0.0498281786941561  7.36973947895791 0  7.5 0  C 7.63026052104209 0  7.74549098196394 0.0498281786941561  7.84569138276555 0.149484536082468  L 14.8496993987976 7.11546391752576  Z " fill-rule="nonzero" fill="#ffffff" stroke="none" transform="matrix(1 0 0 1 321 98 )" />
  </g>
</svg>