<?xml version="1.0" encoding="utf-8"?>
<svg version="1.1" xmlns:xlink="http://www.w3.org/1999/xlink" width="12px" height="12px" viewBox="23 217.5  12 12" xmlns="http://www.w3.org/2000/svg">
  <path d="M 29 217.5  C 32.36 217.5  35 220.14  35 223.5  C 35 226.86  32.36 229.5  29 229.5  C 25.64 229.5  23 226.86  23 223.5  C 23 220.14  25.64 217.5  29 217.5  Z " fill-rule="nonzero" fill="#ffffff" stroke="none" />
  <path d="M 29 218  C 32.08 218  34.5 220.42  34.5 223.5  C 34.5 226.58  32.08 229  29 229  C 25.92 229  23.5 226.58  23.5 223.5  C 23.5 220.42  25.92 218  29 218  Z " stroke-width="1" stroke="#cccccc" fill="none" />
  <path d="M 29 226.5  C 27.32 226.5  26 225.18  26 223.5  C 26 221.82  27.32 220.5  29 220.5  C 30.68 220.5  32 221.82  32 223.5  C 32 225.18  30.68 226.5  29 226.5  " fill-rule="nonzero" fill="#cccccc" stroke="none" />
</svg>