<?xml version="1.0" encoding="utf-8"?>
<svg version="1.1" xmlns:xlink="http://www.w3.org/1999/xlink" width="26px" height="26px" xmlns="http://www.w3.org/2000/svg">
  <g transform="matrix(1 0 0 1 -22 -37 )">
    <path d="M 24.78 3.46  C 25.405 2.836  25.405 1.823  24.78 1.198  C 24.468 0.886000000000001  24.058 0.73  23.649 0.73  C 23.24 0.73  22.83 0.886000000000001  22.518 1.198  L 17.812 5.903  L 17.812 5  L 1 5  L 1 25  L 21 25  L 21 8.211  L 20.03 8.211  L 24.78 3.46  Z M 20 24.203  L 19.944 24  L 2 24  L 2 6  L 17.637 6  L 9.281 14.433  L 9.281 16.74  L 11.5 16.74  L 20 8.295  L 20 24.203  Z M 24.025 2.705  L 24.026 2.706  L 11.059 15.674  L 10.348 15.674  L 10.348 14.874  L 23.272 1.95  C 23.407 1.815  23.566 1.795  23.648 1.795  C 23.73 1.795  23.89 1.815  24.025 1.951  C 24.161 2.087  24.182 2.246  24.182 2.328  C 24.182 2.41  24.162 2.568  24.025 2.705  Z " fill-rule="nonzero" fill="#666666" stroke="none" transform="matrix(1 0 0 1 22 37 )" />
  </g>
</svg>