<?xml version="1.0" encoding="utf-8"?>
<svg version="1.1" xmlns:xlink="http://www.w3.org/1999/xlink" width="101px" height="101px" xmlns="http://www.w3.org/2000/svg">
  <g transform="matrix(1 0 0 1 -17 -27 )">
    <path d="M 67.5 28  C 95.22 28  117 49.78  117 77.5  C 117 105.22  95.22 127  67.5 127  C 39.78 127  18 105.22  18 77.5  C 18 49.78  39.78 28  67.5 28  Z " fill-rule="nonzero" fill="#ffffff" stroke="none" />
    <path d="M 67.5 28  C 95.22 28  117 49.78  117 77.5  C 117 105.22  95.22 127  67.5 127  C 39.78 127  18 105.22  18 77.5  C 18 49.78  39.78 28  67.5 28  Z " stroke-width="2" stroke="#cccccc" fill="none" />
  </g>
</svg>