<?xml version="1.0" encoding="utf-8"?>
<svg version="1.1" xmlns:xlink="http://www.w3.org/1999/xlink" width="20px" height="24px" xmlns="http://www.w3.org/2000/svg">
  <g transform="matrix(1 0 0 1 -21 -156 )">
    <path d="M 20 2  C 20 0.897199999999998  19.1028 0  18 0  L 3.60000000000002 0  C 2.6216 0  1.80840000000001 0.7072  1.63679999999999 1.63679999999999  C 0.7072 1.80840000000001  0 2.6216  0 3.60000000000002  L 0 22  C 0 23.1028  0.897199999999998 24  2 24  L 16.4 24  C 17.3784 24  18.1916 23.2928  18.3632 22.3632  C 19.2928 22.1916  20 21.3784  20 20.4  L 20 2  Z M 17.6 6  L 17.6 22  C 17.6 22.6616  17.0616 23.2  16.4 23  L 2 23  C 1.33839999999998 23.2  0.800000000000011 22.6616  1 22  L 1 3.60000000000002  C 0.800000000000011 2.9384  1.33839999999998 2.39999999999998  2 2.39999999999998  L 14 2.39999999999998  L 14 5.60000000000002  C 14 5.82119999999998  14.1788 6  14.4 6  L 17.6 6  Z M 17.0344 5.19999999999999  L 14.8 5.19999999999999  L 14.8 2.96559999999999  L 17.0344 5.19999999999999  Z M 19 2  L 19 20.4  C 19.2 20.9208  18.8644 21.3608  18 21.5264  L 18 5.60000000000002  C 18.4 5.48919999999998  18.3548 5.38920000000002  18.2824 5.3168  L 14.6836 1.71800000000002  C 14.6108 1.64519999999999  14.5108 1.60000000000002  14.4 2  L 2.47359999999998 2  C 2.63920000000002 1.13560000000001  3.07920000000001 0.800000000000011  3.60000000000002 1  L 18 1  C 18.6616 0.800000000000011  19.2 1.33839999999998  19 2  Z " fill-rule="nonzero" fill="#666666" stroke="none" transform="matrix(1 0 0 1 21 156 )" />
  </g>
</svg>