<?xml version="1.0" encoding="utf-8"?>
<svg version="1.1" xmlns:xlink="http://www.w3.org/1999/xlink" width="4px" height="4px" xmlns="http://www.w3.org/2000/svg">
  <g transform="matrix(1 0 0 1 -28 -160 )">
    <path d="M 4 2  C 4 0.897199999999998  3.1028 0  2 0  C 0.897199999999998 0  0 0.897199999999998  0 2  C 0 3.1028  0.897199999999998 4  2 4  C 3.1028 4  4 3.1028  4 2  Z M 3.19999999999999 2  C 3.19999999999999 2.66160000000002  2.66160000000002 3.19999999999999  2 3.19999999999999  C 1.33839999999998 3.19999999999999  0.800000000000011 2.66160000000002  0.800000000000011 2  C 0.800000000000011 1.33839999999998  1.33839999999998 0.800000000000011  2 0.800000000000011  C 2.66160000000002 0.800000000000011  3.19999999999999 1.33839999999998  3.19999999999999 2  Z " fill-rule="nonzero" fill="#666666" stroke="none" transform="matrix(1 0 0 1 28 160 )" />
  </g>
</svg>