<?xml version="1.0" encoding="utf-8"?>
<svg version="1.1" xmlns:xlink="http://www.w3.org/1999/xlink" width="20px" height="15px" xmlns="http://www.w3.org/2000/svg">
  <g transform="matrix(1 0 0 1 -22 -36 )">
    <path d="M 18.0576640625 0.33468750000003  L 18.05905859375 0.336082031250029  L 6.12326562500001 11.909296875  L 1.9424609375 7.72849218749999  C 1.5073671875 7.29339843749997  0.801734375000002 7.29339843749997  0.365246093750002 7.72849218749999  C -0.071242187499994 8.16358593749999  -0.0698476562499977 8.86921874999999  0.365246093750002 9.30570703124999  L 5.3228046875 14.263265625  C 5.54035156249999 14.4808125  5.82623046875 14.5895859375  6.11071484375 14.5895859375  C 6.38962109375 14.5895859375  6.669921875 14.48499609375  6.88607421875 14.27581640625  L 19.60977734375 1.93700390625003  C 20.05184375 1.50748828125001  20.063 0.801855468750006  19.63487890625 0.359789062499971  C 19.20396875 -0.0836718750000074  18.49973046875 -0.0934335937499924  18.0576640625 0.33468750000003  Z " fill-rule="nonzero" fill="#ffffff" stroke="none" transform="matrix(1 0 0 1 22 36 )" />
  </g>
</svg>