<?xml version="1.0" encoding="utf-8"?>
<svg version="1.1" xmlns:xlink="http://www.w3.org/1999/xlink" width="20px" height="13px" xmlns="http://www.w3.org/2000/svg">
  <g transform="matrix(1 0 0 1 -270 -37 )">
    <path d="M 14.8493303571428 10.0277777777778  C 16.3411458333333 9.12777777777779  17.5818452380952 7.91851851851854  18.5714285714286 6.40000000000001  C 17.4404761904762 4.65185185185186  16.0230654761905 3.34444444444443  14.3191964285714 2.47777777777779  C 14.7730654761905 3.24814814814815  15 4.08148148148149  15 4.97777777777779  C 15 6.34814814814814  14.5107886904762 7.52037037037039  13.5323660714286 8.49444444444444  C 12.553943452381 9.46851851851852  11.3764880952381 9.95555555555558  10 9.95555555555558  C 8.62351190476193 9.95555555555558  7.44605654761904 9.46851851851852  6.46763392857144 8.49444444444444  C 5.4892113095238 7.52037037037039  5 6.34814814814814  5 4.97777777777779  C 5 4.08148148148149  5.22693452380952 3.24814814814815  5.68080357142856 2.47777777777779  C 3.97693452380952 3.34444444444443  2.5595238095238 4.65185185185186  1.42857142857144 6.40000000000001  C 2.41815476190476 7.91851851851854  3.65885416666669 9.12777777777779  5.15066964285717 10.0277777777778  C 6.64248511904759 10.9277777777778  8.25892857142856 11.3777777777778  10 11.3777777777778  C 11.7410714285714 11.3777777777778  13.3575148809524 10.9277777777778  14.8493303571428 10.0277777777778  Z M 10.3794642857143 2.51111111111112  C 10.483630952381 2.40740740740742  10.5357142857143 2.28148148148148  10.5357142857143 2.13333333333333  C 10.5357142857143 1.98518518518517  10.483630952381 1.85925925925926  10.3794642857143 1.75555555555556  C 10.2752976190476 1.65185185185186  10.1488095238095 1.59999999999999  10 1.59999999999999  C 9.06994047619048 1.59999999999999  8.27194940476193 1.93148148148148  7.60602678571428 2.59444444444443  C 6.94010416666669 3.25740740740741  6.60714285714283 4.05185185185186  6.60714285714283 4.97777777777779  C 6.60714285714283 5.12592592592594  6.6592261904762 5.25185185185185  6.76339285714283 5.35555555555555  C 6.86755952380952 5.45925925925926  6.99404761904759 5.51111111111112  7.14285714285717 5.51111111111112  C 7.29166666666669 5.51111111111112  7.41815476190476 5.45925925925926  7.52232142857144 5.35555555555555  C 7.62648809523807 5.25185185185185  7.67857142857144 5.12592592592594  7.67857142857144 4.97777777777779  C 7.67857142857144 4.34074074074076  7.90550595238096 3.7962962962963  8.359375 3.34444444444443  C 8.81324404761904 2.89259259259259  9.36011904761904 2.66666666666666  10 2.66666666666666  C 10.1488095238095 2.66666666666666  10.2752976190476 2.61481481481482  10.3794642857143 2.51111111111112  Z M 19.7767857142857 5.63333333333333  C 19.9255952380952 5.89259259259259  20 6.14814814814815  20 6.40000000000001  C 20 6.65185185185186  19.9255952380952 6.90740740740742  19.7767857142857 7.16666666666669  C 18.735119047619 8.87037037037038  17.3344494047619 10.2351851851852  15.5747767857143 11.2611111111111  C 13.8151041666667 12.287037037037  11.9568452380952 12.8  10 12.8  C 8.04315476190476 12.8  6.18489583333331 12.2851851851852  4.42522321428572 11.2555555555556  C 2.66555059523807 10.2259259259259  1.26488095238096 8.86296296296297  0.223214285714278 7.16666666666669  C 0.0744047619047592 6.90740740740742  0 6.65185185185186  0 6.40000000000001  C 0 6.14814814814815  0.0744047619047592 5.89259259259259  0.223214285714278 5.63333333333333  C 1.26488095238096 3.93703703703704  2.66555059523807 2.57407407407408  4.42522321428572 1.54444444444445  C 6.18489583333331 0.514814814814827  8.04315476190476 0  10 0  C 11.9568452380952 0  13.8151041666667 0.514814814814827  15.5747767857143 1.54444444444445  C 17.3344494047619 2.57407407407408  18.735119047619 3.93703703703704  19.7767857142857 5.63333333333333  Z " fill-rule="nonzero" fill="#ffffff" stroke="none" transform="matrix(1 0 0 1 270 37 )" />
  </g>
</svg>