<?xml version="1.0" encoding="utf-8"?>
<svg version="1.1" xmlns:xlink="http://www.w3.org/1999/xlink" width="15px" height="11px" xmlns="http://www.w3.org/2000/svg">
  <g transform="matrix(1 0 0 1 -107 -77 )">
    <path d="M 13.543248046875 0.251015625000036  L 13.5442939453125 0.252061523437533  L 4.59244921875001 8.93197265625003  L 1.45684570312501 5.796369140625  C 1.13052539062498 5.47004882812499  0.601300781249989 5.47004882812499  0.27393457031252 5.796369140625  C -0.053431640625007 6.12268945312499  -0.0523857421875107 6.6519140625  0.27393457031252 6.9792802734375  L 3.992103515625 10.69744921875  C 4.15526367187501 10.860609375  4.3696728515625 10.942189453125  4.5830361328125 10.942189453125  C 4.79221582031251 10.942189453125  5.00244140625 10.8637470703125  5.16455566406252 10.7068623046875  L 14.7073330078125 1.45275292968753  C 15.0388828125 1.13061621093752  15.04725 0.601391601562511  14.7261591796875 0.269841796874985  C 14.4029765625 -0.0627539062500091  13.8747978515625 -0.0700751953124694  13.543248046875 0.251015625000036  Z " fill-rule="nonzero" fill="#666666" stroke="none" transform="matrix(1 0 0 1 107 77 )" />
  </g>
</svg>