<?xml version="1.0" encoding="utf-8"?>
<svg version="1.1" xmlns:xlink="http://www.w3.org/1999/xlink" width="14px" height="14px" xmlns="http://www.w3.org/2000/svg">
  <g transform="matrix(1 0 0 1 -141 -604 )">
    <path d="M 13.931 7.06599999999999  C 13.931 3.23799999999999  10.828 0.135999999999996  7 0.135999999999999  C 3.172 0.135999999999999  0.0689999999999991 3.238  0.0689999999999991 7.066  C 0.0689999999999991 10.894  3.172 13.998  7 13.998  C 10.828 13.998  13.931 10.894  13.931 7.06599999999999  Z M 12.864 7.066  C 12.864 10.3  10.233 12.931  7 12.931  C 3.766 12.931  1.136 10.3  1.136 7.066  C 1.136 3.832  3.767 1.203  7 1.203  C 10.233 1.203  12.864 3.833  12.864 7.066  Z " fill-rule="nonzero" fill="#666666" stroke="none" transform="matrix(1 0 0 1 141 604 )" />
  </g>
</svg>