<?xml version="1.0" encoding="utf-8"?>
<svg version="1.1" xmlns:xlink="http://www.w3.org/1999/xlink" width="10px" height="10px" xmlns="http://www.w3.org/2000/svg">
  <g transform="matrix(1 0 0 1 -143 -606 )">
    <path d="M 9.798 5.065  C 9.798 2.415  7.65 0.268000000000001  5 0.268000000000001  C 2.349 0.268000000000001  0.202 2.415  0.202 5.065  C 0.202 7.715  2.35 9.864  5 9.864  C 7.65 9.864  9.798 7.715  9.798 5.065  Z M 8.732 5.065  C 8.732 7.123  7.058 8.798  5 8.798  C 2.942 8.798  1.268 7.123  1.268 5.065  C 1.268 3.007  2.942 1.334  5 1.334  C 7.058 1.334  8.732 3.007  8.732 5.065  Z " fill-rule="nonzero" fill="#666666" stroke="none" transform="matrix(1 0 0 1 143 606 )" />
  </g>
</svg>