<?xml version="1.0" encoding="utf-8"?>
<svg version="1.1" xmlns:xlink="http://www.w3.org/1999/xlink" width="28px" height="22px" xmlns="http://www.w3.org/2000/svg">
  <g transform="matrix(1 0 0 1 -134 -599 )">
    <path d="M 25.194 4.07  L 25.195 4.069  L 20.785 4.069  L 18.221 1.499  C 18.218 1.496  18.215 1.494  18.213 1.491  L 18.208 1.487  C 17.823 1.106  17.294 0.871000000000001  16.709 0.871000000000001  L 11.378 0.871000000000001  C 10.758 0.871000000000001  10.206 1.139  9.816 1.56  L 9.814 1.554  L 7.303 4.07  L 2.803 4.07  C 1.625 4.07  0.671000000000004 5.025  1 6.203  L 1 18.998  C 0.671000000000004 20.176  1.626 21.131  2.803 21  L 25.194 21  C 26.372 21.131  27.327 20.176  27 18.998  L 27 6.203  C 27.327 5.025  26.372 4.07  25.194 4.07  Z M 26 18.996  L 26.262 18.997  C 26.262 19.584  25.783 20.063  25.195 20  L 2.804 20  C 2.216 20.063  1.738 19.584  2 18.997  L 2 6.202  C 1.738 5.614  2.217 5.136  2.804 5.136  L 7.746 5.136  L 9.35 3.529  L 9.376 3.607  L 10.6 2.283  C 10.807 2.059  11.084 1.936  11.379 1.936  L 16.71 1.936  C 16.992 1.936  17.258 2.045  17.467 2.252  L 20.343 5.135  L 25.195 5.135  C 25.783 5.135  26.262 5.613  26 6.201  L 26 18.996  Z " fill-rule="nonzero" fill="#666666" stroke="none" transform="matrix(1 0 0 1 134 599 )" />
  </g>
</svg>