<?xml version="1.0" encoding="utf-8"?>
<svg version="1.1" xmlns:xlink="http://www.w3.org/1999/xlink" width="22px" height="24px" xmlns="http://www.w3.org/2000/svg">
  <g transform="matrix(1 0 0 1 -20 -598 )">
    <path d="M 13.5504 2.1392  C 13.3504 0.948799999999999  12.3176 0.0407999999999991  11.0704 0.0407999999999991  C 9.8232 0.0407999999999991  8.7904 0.948799999999999  8.5904 2.1392  L 1 2.1392  L 1 24  L 21 24  L 21 2.1392  L 13.5496 2.1392  Z M 8.968 4.3072  L 9.392 4.0656  L 9.392 2.5584  C 9.392 1.6328  10.1448 0.88  11.0704 0.88  C 11.996 0.88  12.7488 1.6328  12.7488 2.5584  L 12.7488 4.0656  L 13.1736 4.3072  C 13.9976 4.776  14.6296 5.4888  14.992 6.3352  L 7.1496 6.3352  C 7.512 5.4888  8.144 4.776  8.968 4.3072  Z M 20 2.9784  L 20 23  L 2 23  L 2 2.9784  L 8.5536 2.9784  L 8.5536 3.5776  C 7.2432 4.3232  6.2944 5.6304  6.036 7.1744  L 16.1064 7.1744  C 15.8488 5.6304  14.8992 4.324  13.5888 3.5776  L 13.5888 2.9784  L 20 2.9784  Z " fill-rule="nonzero" fill="#666666" stroke="none" transform="matrix(1 0 0 1 20 598 )" />
  </g>
</svg>