<?xml version="1.0" encoding="utf-8"?>
<svg version="1.1" xmlns:xlink="http://www.w3.org/1999/xlink" width="4px" height="3px" xmlns="http://www.w3.org/2000/svg">
  <g transform="matrix(1 0 0 1 -25 -101 )">
    <path d="M 3.71199999999999 0.589285714285722  C 3.57440000000001 0.404142857142858  3.32240000000002 0.374571428571414  3.15 0.522428571428577  L 1.42959999999998 1.99714285714288  L 0.882799999999996 1.41128571428573  C 0.726400000000012 1.2437142857143  0.473599999999987 1.2437142857143  0.317200000000003 1.41128571428573  C 0.160800000000016 1.57885714285715  0.160800000000016 1.8497142857143  0.317200000000003 2.01728571428572  L 1.1172 2.87442857142858  C 1.19479999999999 2.95757142857144  1.29720000000002 3  1.4 3  C 1.48800000000001 3  1.57640000000001 2.96914285714286  1.64960000000001 2.90614285714287  L 3.64960000000001 1.19185714285715  C 3.82240000000002 1.0435714285714  3.85 0.774000000000001  3.71199999999999 0.589285714285722  Z " fill-rule="nonzero" fill="#666666" stroke="none" transform="matrix(1 0 0 1 25 101 )" />
  </g>
</svg>