<?xml version="1.0" encoding="utf-8"?>
<svg version="1.1" xmlns:xlink="http://www.w3.org/1999/xlink" width="20px" height="16px" xmlns="http://www.w3.org/2000/svg">
  <g transform="matrix(1 0 0 1 -17 -152 )">
    <path d="M 4.1796875 11.4507102272727  C 4.25037202380952 11.5208806818182  4.28571428571428 11.6039772727273  4.28571428571428 11.7  L 4.28571428571428 12.4090909090909  C 4.28571428571428 12.5051136363637  4.25037202380952 12.5882102272727  4.1796875 12.6583806818182  C 4.10900297619048 12.7285511363636  4.02529761904759 12.7636363636364  3.92857142857144 12.7636363636364  L 3.21428571428572 12.7636363636364  C 3.11755952380952 12.7636363636364  3.03385416666669 12.7285511363636  2.96316964285717 12.6583806818182  C 2.89248511904759 12.5882102272727  2.85714285714283 12.5051136363637  2.85714285714283 12.4090909090909  L 2.85714285714283 11.7  C 2.85714285714283 11.6039772727273  2.89248511904759 11.5208806818182  2.96316964285717 11.4507102272727  C 3.03385416666669 11.3805397727273  3.11755952380952 11.3454545454546  3.21428571428572 11.3454545454546  L 3.92857142857144 11.3454545454546  C 4.02529761904759 11.3454545454546  4.10900297619048 11.3805397727273  4.1796875 11.4507102272727  Z M 4.1796875 8.61434659090912  C 4.25037202380952 8.68451704545458  4.28571428571428 8.76761363636365  4.28571428571428 8.86363636363637  L 4.28571428571428 9.57272727272726  C 4.28571428571428 9.66874999999999  4.25037202380952 9.75184659090911  4.1796875 9.82201704545457  C 4.10900297619048 9.89218750000003  4.02529761904759 9.92727272727274  3.92857142857144 9.92727272727274  L 3.21428571428572 9.92727272727274  C 3.11755952380952 9.92727272727274  3.03385416666669 9.89218750000003  2.96316964285717 9.82201704545457  C 2.89248511904759 9.75184659090911  2.85714285714283 9.66874999999999  2.85714285714283 9.57272727272726  L 2.85714285714283 8.86363636363637  C 2.85714285714283 8.76761363636365  2.89248511904759 8.68451704545458  2.96316964285717 8.61434659090912  C 3.03385416666669 8.54417613636366  3.11755952380952 8.5090909090909  3.21428571428572 8.5090909090909  L 3.92857142857144 8.5090909090909  C 4.02529761904759 8.5090909090909  4.10900297619048 8.54417613636366  4.1796875 8.61434659090912  Z M 4.1796875 5.77798295454545  C 4.25037202380952 5.84815340909091  4.28571428571428 5.93125000000003  4.28571428571428 6.02727272727276  L 4.28571428571428 6.73636363636365  C 4.28571428571428 6.83238636363637  4.25037202380952 6.91548295454544  4.1796875 6.9856534090909  C 4.10900297619048 7.05582386363636  4.02529761904759 7.09090909090912  3.92857142857144 7.09090909090912  L 3.21428571428572 7.09090909090912  C 3.11755952380952 7.09090909090912  3.03385416666669 7.05582386363636  2.96316964285717 6.9856534090909  C 2.89248511904759 6.91548295454544  2.85714285714283 6.83238636363637  2.85714285714283 6.73636363636365  L 2.85714285714283 6.02727272727276  C 2.85714285714283 5.93125000000003  2.89248511904759 5.84815340909091  2.96316964285717 5.77798295454545  C 3.03385416666669 5.70781249999999  3.11755952380952 5.67272727272729  3.21428571428572 5.67272727272729  L 3.92857142857144 5.67272727272729  C 4.02529761904759 5.67272727272729  4.10900297619048 5.70781249999999  4.1796875 5.77798295454545  Z M 17.0368303571428 11.4507102272727  C 17.1075148809524 11.5208806818182  17.1428571428572 11.6039772727273  17.1428571428572 11.7  L 17.1428571428572 12.4090909090909  C 17.1428571428572 12.5051136363637  17.1075148809524 12.5882102272727  17.0368303571428 12.6583806818182  C 16.9661458333333 12.7285511363636  16.8824404761905 12.7636363636364  16.7857142857143 12.7636363636364  L 6.07142857142856 12.7636363636364  C 5.97470238095241 12.7636363636364  5.89099702380952 12.7285511363636  5.8203125 12.6583806818182  C 5.74962797619048 12.5882102272727  5.71428571428572 12.5051136363637  5.71428571428572 12.4090909090909  L 5.71428571428572 11.7  C 5.71428571428572 11.6039772727273  5.74962797619048 11.5208806818182  5.8203125 11.4507102272727  C 5.89099702380952 11.3805397727273  5.97470238095241 11.3454545454546  6.07142857142856 11.3454545454546  L 16.7857142857143 11.3454545454546  C 16.8824404761905 11.3454545454546  16.9661458333333 11.3805397727273  17.0368303571428 11.4507102272727  Z M 17.0368303571428 8.61434659090912  C 17.1075148809524 8.68451704545458  17.1428571428572 8.76761363636365  17.1428571428572 8.86363636363637  L 17.1428571428572 9.57272727272726  C 17.1428571428572 9.66874999999999  17.1075148809524 9.75184659090911  17.0368303571428 9.82201704545457  C 16.9661458333333 9.89218750000003  16.8824404761905 9.92727272727274  16.7857142857143 10  L 6.07142857142856 10  C 5.97470238095241 9.92727272727274  5.89099702380952 9.89218750000003  5.8203125 9.82201704545457  C 5.74962797619048 9.75184659090911  5.71428571428572 9.66874999999999  5.71428571428572 9.57272727272726  L 5.71428571428572 8.86363636363637  C 5.71428571428572 8.76761363636365  5.74962797619048 8.68451704545458  5.8203125 8.61434659090912  C 5.89099702380952 8.54417613636366  5.97470238095241 8.5090909090909  6.07142857142856 8.5090909090909  L 16.7857142857143 8.5090909090909  C 16.8824404761905 8.5090909090909  16.9661458333333 8.54417613636366  17.0368303571428 8.61434659090912  Z M 17.0368303571428 5.77798295454545  C 17.1075148809524 5.84815340909091  17.1428571428572 5.93125000000003  17.1428571428572 6.02727272727276  L 17.1428571428572 6.73636363636365  C 17.1428571428572 6.83238636363637  17.1075148809524 6.91548295454544  17.0368303571428 6.9856534090909  C 16.9661458333333 7.05582386363636  16.8824404761905 7.09090909090912  16.7857142857143 7  L 6.07142857142856 7  C 5.97470238095241 7.09090909090912  5.89099702380952 7.05582386363636  5.8203125 6.9856534090909  C 5.74962797619048 6.91548295454544  5.71428571428572 6.83238636363637  5.71428571428572 6.73636363636365  L 5.71428571428572 6.02727272727276  C 5.71428571428572 5.93125000000003  5.74962797619048 5.84815340909091  5.8203125 5.77798295454545  C 5.89099702380952 5.70781249999999  5.97470238095241 5.67272727272729  6.07142857142856 5.67272727272729  L 16.7857142857143 5.67272727272729  C 16.8824404761905 5.67272727272729  16.9661458333333 5.70781249999999  17.0368303571428 5.77798295454545  Z M 18.4654017857143 14.0765625  C 18.5360863095238 14.0063920454546  18.5714285714286 13.9232954545455  18.5714285714286 13.8272727272728  L 18.5714285714286 4.60909090909092  C 18.5714285714286 4.5130681818182  18.5360863095238 4.42997159090908  18.4654017857143 4.35980113636361  C 18.3947172619048 4.28963068181821  18.3110119047619 4.25454545454545  18.2142857142857 4.25454545454545  L 1.78571428571428 4.25454545454545  C 1.68898809523807 4.25454545454545  1.60528273809524 4.28963068181821  1.53459821428572 4.35980113636361  C 1.4639136904762 4.42997159090908  1.42857142857144 4.5130681818182  1.42857142857144 4.60909090909092  L 1.42857142857144 13.8272727272728  C 1.42857142857144 13.9232954545455  1.4639136904762 14.0063920454546  1.53459821428572 14.0765625  C 1.60528273809524 14.1467329545455  1.68898809523807 14.1818181818182  1.78571428571428 14  L 18.2142857142857 14  C 18.3110119047619 14.1818181818182  18.3947172619048 14.1467329545455  18.4654017857143 14.0765625  Z M 19.4754464285714 0.52073863636366  C 19.8251488095238 0.867897727272748  20 1.2852272727273  20 1.77272727272725  L 20 13.8272727272728  C 20 14.3147727272727  19.8251488095238 14.7321022727273  19.4754464285714 15.0792613636364  C 19.125744047619 15.4264204545455  18.7053571428572 15.6  18.2142857142857 15.6  L 1.78571428571428 15.6  C 1.29464285714283 15.6  0.874255952380963 15.4264204545455  0.524553571428555 15.0792613636364  C 0.174851190476204 14.7321022727273  0 14.3147727272727  0 13.8272727272728  L 0 1.77272727272725  C 0 1.2852272727273  0.174851190476204 0.867897727272748  0.524553571428555 0.52073863636366  C 0.874255952380963 0.173579545454515  1.29464285714283 0  1.78571428571428 0  L 18.2142857142857 0  C 18.7053571428572 0  19.125744047619 0.173579545454515  19.4754464285714 0.52073863636366  Z " fill-rule="nonzero" fill="#333333" stroke="none" transform="matrix(1 0 0 1 17 152 )" />
  </g>
</svg>