<?xml version="1.0" encoding="utf-8"?>
<svg version="1.1" xmlns:xlink="http://www.w3.org/1999/xlink" width="20px" height="20px" xmlns="http://www.w3.org/2000/svg">
  <g transform="matrix(1 0 0 1 -310 -17 )">
    <path d="M 10 15.4947916666667  C 10.2256944444445 15.4947916666667  10.4210069444445 15.4123263888889  10.5859375 15.2473958333333  L 16.4973958333333 9.3359375  C 16.6623263888889 9.17100694444446  16.7447916666667 8.97569444444446  16.7447916666667 8.75  C 16.7447916666667 8.52430555555554  16.6623263888889 8.32899305555554  16.4973958333333 8.1640625  L 15.1692708333333 6.8359375  C 15.0043402777778 6.67100694444446  14.8090277777778 6.58854166666669  14.5833333333333 6.58854166666669  C 14.3576388888889 6.58854166666669  14.1623263888889 6.67100694444446  13.9973958333333 6.8359375  L 10 10.8333333333333  L 6.00260416666669 6.8359375  C 5.83767361111109 6.67100694444446  5.64236111111109 6.58854166666669  5.41666666666669 6.58854166666669  C 5.19097222222223 6.58854166666669  4.99565972222223 6.67100694444446  4.83072916666669 6.8359375  L 3.50260416666669 8.1640625  C 3.33767361111109 8.32899305555554  3.25520833333331 8.52430555555554  3.25520833333331 8.75  C 3.25520833333331 8.97569444444446  3.33767361111109 9.17100694444446  3.50260416666669 9.3359375  L 9.4140625 15.2473958333333  C 9.57899305555554 15.4123263888889  9.77430555555554 15.4947916666667  10 15.4947916666667  Z M 18.6588541666667 4.98046875  C 19.5529513888889 6.51258680555554  20 8.18576388888891  20 10  C 20 11.8142361111111  19.5529513888889 13.4874131944445  18.6588541666667 15.01953125  C 17.7647569444445 16.5516493055555  16.5516493055555 17.7647569444445  15.01953125 18.6588541666667  C 13.4874131944445 19.5529513888889  11.8142361111111 20  10 20  C 8.18576388888891 20  6.51258680555554 19.5529513888889  4.98046875 18.6588541666667  C 3.44835069444446 17.7647569444445  2.23524305555554 16.5516493055555  1.34114583333331 15.01953125  C 0.447048611111086 13.4874131944445  0 11.8142361111111  0 10  C 0 8.18576388888891  0.447048611111086 6.51258680555554  1.34114583333331 4.98046875  C 2.23524305555554 3.44835069444446  3.44835069444446 2.23524305555554  4.98046875 1.34114583333331  C 6.51258680555554 0.447048611111086  8.18576388888891 0  10 0  C 11.8142361111111 0  13.4874131944445 0.447048611111086  15.01953125 1.34114583333331  C 16.5516493055555 2.23524305555554  17.7647569444445 3.44835069444446  18.6588541666667 4.98046875  Z " fill-rule="nonzero" fill="#999999" stroke="none" transform="matrix(1 0 0 1 310 17 )" />
  </g>
</svg>