<?xml version="1.0" encoding="utf-8"?>
<svg version="1.1" xmlns:xlink="http://www.w3.org/1999/xlink" width="20px" height="34px" xmlns="http://www.w3.org/2000/svg">
  <g transform="matrix(1 0 0 1 -32 -569 )">
    <path d="M 19.0011454753721 2.004008016032  C 19.2226040473463 2.22667557336899  19.3333333333333 2.48274326430646  19.3333333333333 2.77221108884441  C 19.3333333333333 3.06167891338225  19.2226040473463 3.31774660431984  19.0011454753721 3.54041416165671  L 5.94616265750278 16.6666666666667  L 19.0011454753721 29.7929191716767  C 19.2226040473463 30.0155867290135  19.3333333333333 30.2716544199511  19.3333333333333 30.561122244489  C 19.3333333333333 30.8505900690269  19.2226040473463 31.1066577599644  19.0011454753721 31.3293253173014  L 17.340206185567 32.999331997328  C 17.1187476135929 33.2219995546649  16.8640702558225 33.3333333333334  16.5761741122565 33.3333333333334  C 16.2882779686902 33.3333333333334  16.0336006109201 33.2219995546649  15.8121420389461 32.999331997328  L 0.332187857961117 17.434869739479  C 0.110729285986963 17.2122021821422  0 16.9561344912046  0 16.6666666666667  C 0 16.3771988421288  0.110729285986963 16.1211311511913  0.332187857961117 15.8984635938543  L 15.8121420389461 0.334001336005372  C 16.0336006109201 0.111333778668495  16.2882779686902 0  16.5761741122565 0  C 16.8640702558225 0  17.1187476135929 0.111333778668495  17.340206185567 0.334001336005372  L 19.0011454753721 2.004008016032  Z " fill-rule="nonzero" fill="#ffffff" stroke="none" transform="matrix(1 0 0 1 32 569 )" />
  </g>
</svg>