<?xml version="1.0" encoding="utf-8"?>
<svg version="1.1" xmlns:xlink="http://www.w3.org/1999/xlink" width="12px" height="28px" xmlns="http://www.w3.org/2000/svg">
  <g transform="matrix(1 0 0 1 -36 -273 )">
    <path d="M 4.07082895136261 24.6323086595414  C 7.28713549317132 23.1442705403528  9.75348843231671 20.5315178187353  10.9716451128858 17.2412560802091  C 13.487200809112 10.4433341054234  9.76332898373289 2.95102743125642  2.67036310771522 0.539790212104151  C 2.12965070358507 0.357135766519946  1.53869969485658 0.627146686079243  1.34758582787953 1.14334403229543  C 1.15647196090254 1.66003772211377  1.43822248565999 2.22785480295158  1.9773811185139 2.41100559213794  C 7.99410142385875 4.45643757651965  11.1534363522054 10.8121174018067  9.01959046617452 16.57764468416  C 7.95318544691787 19.4584229509281  5.76133209990752 21.7296912742795  2.90342879915062 22.9690612488005  L 4.68405068171717 18.1584990569472  C 4.87516454869422 17.6413090235267  4.5934140239367 17.073988286291  4.05425539108279 16.8908374971047  C 3.51354298695264 16.7086793951226  2.9225919782242 16.9781939710797  2.73147811124716 17.4943913172959  L 0.188472455807414 24.3667648324013  C -0.00264141116957717 24.8834585222197  0.279109113587879 25.4512756030575  0.818267746441791 25.6344263922438  L 7.61135576614589 27.9424241421528  C 7.72633484058736 27.981138943119  7.84286768630511 28  7.95784676074658 28  C 8.38409801419397 28  8.78341723218665 27.7453757321068  8.93413304598153 27.3388703219616  C 9.12524691295857 26.8221766321432  8.84349638820112 26.2543595513054  8.30433775534721 26.0712087621191  L 4.07082895136261 24.6323086595414  Z " fill-rule="nonzero" fill="#666666" stroke="none" transform="matrix(1 0 0 1 36 273 )" />
  </g>
</svg>