<?xml version="1.0" encoding="utf-8"?>
<svg version="1.1" xmlns:xlink="http://www.w3.org/1999/xlink" width="20px" height="35px" xmlns="http://www.w3.org/2000/svg">
  <g transform="matrix(1 0 0 1 -305 -569 )">
    <path d="M 19.6563573883161 16.4466864764011  C 19.885452462772 16.6770322253702  20 16.9419298366848  20 17.2413793103449  C 20 17.5408287840048  19.885452462772 17.8057263953194  19.6563573883161 18.0360721442886  L 3.64261168384883 34.1372399972358  C 3.4135166093929 34.367585746205  3.15005727376865 34.4827586206897  2.85223367697586 34.4827586206897  C 2.55441008018329 34.4827586206897  2.29095074455904 34.367585746205  2.06185567010311 34.1372399972358  L 0.34364261168389 32.4096468799669  C 0.114547537227963 32.1793011309976  0 31.914403519683  0 31.6149540460231  C 0 31.3155045723631  0.114547537227963 31.0506069610485  0.34364261168389 30.8202612120793  L 13.8487972508592 17.2413793103449  L 0.34364261168389 3.66249740861031  C 0.114547537227963 3.43215165964114  0 3.16725404832653  0 2.86780457466659  C 0 2.56835510100666  0.114547537227963 2.30345748969205  0.34364261168389 2.07311174072288  L 2.06185567010311 0.345518623453813  C 2.29095074455904 0.115172874484642  2.55441008018329 0  2.85223367697586 0  C 3.15005727376865 0  3.4135166093929 0.115172874484642  3.64261168384883 0.345518623453813  L 19.6563573883161 16.4466864764011  Z " fill-rule="nonzero" fill="#ffffff" stroke="none" transform="matrix(1 0 0 1 305 569 )" />
  </g>
</svg>