<?xml version="1.0" encoding="utf-8"?>
<svg version="1.1" xmlns:xlink="http://www.w3.org/1999/xlink" width="12px" height="28px" xmlns="http://www.w3.org/2000/svg">
  <g transform="matrix(1 0 0 1 -21 -271 )">
    <path d="M 7.92917104863733 3.36769134045863  C 4.71286450682868 4.85572945964725  2.24599364392452 7.46897852486683  1.02835488711418 10.759240263393  C -1.48720080911198 17.5571622381788  2.23667101626711 25.0494689123457  9.32963689228478 27.4607061314979  C 9.44461596672625 27.4994209324642  9.561148812444 27.5182819893452  9.67612788688547 27.5182819893452  C 10.1023791403329 27.5182819893452  10.5016983583255 27.263657721452  10.6524141721205 26.8571523113067  C 10.8435280390975 26.3404586214884  10.56177751434 25.7726415406505  10.0226188814861 25.5894907514642  C 4.00589857614125 23.5440587670825  0.846563647794596 17.1888752853976  2.98040953382548 11.4228516594421  C 4.04681455308213 8.54207339267396  6.23866790009248 6.2703087257205  9.09657120084938 5.03143509480162  L 7.31594931828283 9.84199728665499  C 7.12483545130584 10.3591873200754  7.4065859760633 10.9265080573111  7.94574460891721 11.1096588464975  C 8.06072368335867 11.1483736474637  8.17725652907637 11.1672347043447  8.29223560351784 11.1672347043447  C 8.71848685696528 11.1672347043447  9.11780607495797 10.9126104364515  9.26852188875284 10.5061050263062  L 11.8115275441926 3.63373151120084  C 12.0026414111696 3.1170378213825  11.7208908864121 2.54922074054463  11.1817322535582 2.36606995135833  L 4.38812631009534 0.0570795142450606  C 3.84689598220643 -0.125078587736994  3.25646289723676 0.144435988220096  3.06534903025971 0.660633334436341  C 2.87423516328266 1.17732702425468  3.15598568804012 1.74514410509249  3.69514432089403 1.92829489427879  L 7.92917104863733 3.36769134045863  Z " fill-rule="nonzero" fill="#666666" stroke="none" transform="matrix(1 0 0 1 21 271 )" />
  </g>
</svg>