<?xml version="1.0" encoding="utf-8"?>
<svg version="1.1" xmlns:xlink="http://www.w3.org/1999/xlink" width="25px" height="22px" xmlns="http://www.w3.org/2000/svg">
  <g transform="matrix(1 0 0 1 -17 -20 )">
    <path d="M 22.7528846153846 2.63076923076923  L 22.7528846153846 3  L 9.425 3  L 9.425 2.11923076923077  C 9.425 0.986538461538462  8.50673076923077 0.0682692307692321  7.37403846153846 0.0682692307692321  L 2.24807692307692 0.0682692307692321  C 1.11538461538462 0.0682692307692321  0.198076923076922 0.986538461538462  0.198076923076922 2.11923076923077  L 0.198076923076922 19.0355769230769  C 0.198076923076922 20.1682692307692  1.11634615384615 21.0865384615385  2.24807692307692 21  L 22.7528846153846 21  C 23.8855769230769 21.0865384615385  24.8038461538462 20.1682692307692  24.8038461538462 19.0355769230769  L 24.8038461538462 4.68173076923077  C 24.8038461538462 3.54903846153846  23.8855769230769 2.63076923076923  22.7528846153846 2.63076923076923  Z M 1.22211538461539 2.11826923076923  C 1.22211538461539 1.55288461538462  1.68269230769231 1.09326923076923  2.24711538461538 1.09326923076923  L 7.37307692307692 1.09326923076923  C 7.93846153846154 1.09326923076923  8.39807692307692 1.55288461538462  8.39807692307692 2.11826923076923  L 8.39807692307692 4  L 22.7519230769231 4  C 23.3173076923077 3.65576923076923  23.7769230769231 4.11538461538461  23.7769230769231 4.68076923076923  L 23.7769230769231 6  L 1.22211538461538 6  L 1.22211538461538 2.11730769230769  Z M 23.7778846153846 19.0355769230769  C 23.7778846153846 19.6009615384615  23.3173076923077 20.0605769230769  22.7528846153846 20  L 2.24807692307692 20  C 1.68269230769231 20.0605769230769  1.22307692307692 19.6  1.22307692307692 19.0355769230769  L 1.22307692307692 7  L 23.7778846153846 7  L 23.7778846153846 19.0355769230769  Z " fill-rule="nonzero" fill="#ffffff" stroke="none" transform="matrix(1 0 0 1 17 20 )" />
  </g>
</svg>