<?xml version="1.0" encoding="utf-8"?>
<svg version="1.1" xmlns:xlink="http://www.w3.org/1999/xlink" width="26px" height="26px" xmlns="http://www.w3.org/2000/svg">
  <g transform="matrix(1 0 0 1 -21 -214 )">
    <path d="M 25.8847333333334 6.89866666666666  L 16.64 0.612733333333381  L 16.64 4  L 0 4  L 0 25  L 21 25  L 21 9.99526666666668  L 25.8838666666667 6.89866666666666  Z M 17.5647333333333 2.36860000000001  L 24.2207333333333 6.85186666666669  L 17.5647333333333 11.3819333333333  L 17.5647333333333 8.93186666666668  L 17.5647333333333 8.00713333333334  L 15.9007333333333 8.00713333333334  C 15.8548 8.00713333333334  15.8548 8.00713333333334  15.808 8.00713333333334  C 14.144 8.00713333333334  10.7232666666667 8.3304  8.08859999999999 10.5031333333334  C 9.33660000000003 7.45246666666668  12.2026666666666 5.04920000000004  16.5472666666666 5.04920000000004  C 16.5472666666666 5.04920000000004  16.5932 5.04920000000004  16.5932 5.04920000000004  C 16.5932 5.04920000000004  16.5932 5.04920000000004  16.6391333333333 5.04920000000004  L 17.5638666666667 5.04920000000004  L 17.5638666666667 4.17126666666667  C 17.5638666666667 4.17126666666667  17.5638666666667 4.17126666666667  17.5638666666667 4.12533333333334  L 17.5638666666667 2.36860000000001  Z M 20 10.5967333333334  L 20 24  L 1 24  L 1 5  L 12.1567333333334 5  C 8.45866666666666 6.66813333333329  6.47140000000002 10.3653333333334  6.47140000000002 14.2020666666667  C 8.59733333333332 9.48739999999998  13.5434 8.88679999999999  15.808 8.88679999999999  C 16.1312666666666 8.88679999999999  16.4086 8.88679999999999  16.64 8.93273333333332  L 16.64 13.0927333333333  L 20 10.5967333333334  Z " fill-rule="nonzero" fill="#666666" stroke="none" transform="matrix(1 0 0 1 21 214 )" />
  </g>
</svg>