<?xml version="1.0" encoding="utf-8"?>
<svg version="1.1" xmlns:xlink="http://www.w3.org/1999/xlink" width="25px" height="25px" xmlns="http://www.w3.org/2000/svg">
  <g transform="matrix(1 0 0 1 -39 -18 )">
    <path d="M 4.22442244224422 22.8877887788779  L 5.99009900990099 22.8877887788779  L 7.49174917491749 21.3861386138614  L 3.61386138613862 17.5082508250825  L 2.11221122112211 19.009900990099  L 2.11221122112211 20.7755775577558  L 4.22442244224422 20.7755775577558  L 4.22442244224422 22.8877887788779  Z M 14.5049504950495 7.85478547854783  C 14.5819581958196 7.7777777777778  14.6204620462046 7.68426842684266  14.6204620462046 7.57425742574259  C 14.6204620462046 7.33223322332233  14.4994499449945 7.21122112211222  14.2574257425743 7.21122112211222  C 14.1474147414741 7.21122112211222  14.0539053905391 7.24972497249726  13.976897689769 7.32673267326732  L 5.03300330033003 16.2706270627063  C 4.95599559955996 16.3476347634763  4.91749174917491 16.4411441144114  4.91749174917491 16.5511551155116  C 4.91749174917491 16.7931793179318  5.03850385038504 16.9141914191419  5.28052805280528 16.9141914191419  C 5.39053905390539 16.9141914191419  5.48404840484048 16.8756875687569  5.56105610561055 16.7986798679868  L 14.5049504950495 7.85478547854783  Z M 0 18.1353135313531  L 13.7293729372937 4.40594059405942  L 20.5940594059406 11.2706270627062  L 6.86468646864687 25  L 0 25  L 0 18.1353135313531  Z M 24.3894389438944 4.48844884488449  C 24.7964796479648 4.9174917491749  25 5.41804180418043  25 5.990099009901  C 25 6.57315731573158  24.7964796479648 7.06820682068209  24.3894389438944 7.47524752475246  L 21.6501650165016 10.2145214521452  L 14.7854785478548 3.34983498349834  L 17.5247524752475 0.627062706270635  C 17.9207920792079 0.209020902090202  18.4158415841584 0  19.009900990099 0  C 19.5929592959296 0  20.0935093509351 0.209020902090202  20.5115511551155 0.627062706270635  L 24.3894389438944 4.48844884488449  Z " fill-rule="nonzero" fill="#666666" stroke="none" transform="matrix(1 0 0 1 39 18 )" />
  </g>
</svg>