<?xml version="1.0" encoding="utf-8"?>
<svg version="1.1" xmlns:xlink="http://www.w3.org/1999/xlink" width="30px" height="28px" xmlns="http://www.w3.org/2000/svg">
  <g transform="matrix(1 0 0 1 -21 -331 )">
    <path d="M 25.129 0.137000000000007  L 25.129 0.139  C 22.774 0.139  20.864 2.049  20.864 4.404  C 20.864 4.813  20.925 5.207  21.032 5.582  L 8.563 10.808  C 7.826 9.531  6.449 8.669  4.87 8.669  C 2.515 8.669  0.605000000000001 10.579  0.605000000000001 12.934  C 0.605000000000001 15.289  2.515 17.199  4.87 17.199  C 6.104 17.199  7.213 16.672  7.992 15.833  L 16.026 21.607  C 15.712 22.201  15.532 22.877  15.532 23.595  C 15.532 25.951  17.442 27.861  19.797 27.861  C 22.152 27.861  24.062 25.951  24.062 23.595  C 24.062 21.24  22.152 19.331  19.797 19.331  C 18.544 19.331  17.421 19.875  16.64 20.735  L 8.617 14.97  C 8.947 14.365  9.13500000000001 13.671  9.13500000000001 12.933  C 9.13500000000001 12.537  9.07700000000001 12.155  8.976 11.79  L 21.454 6.56000000000001  C 22.195 7.82000000000001  23.561 8.66800000000001  25.129 8.66800000000001  C 27.484 8.66800000000001  29.394 6.75800000000001  29.394 4.40200000000001  C 29.394 2.04700000000001  27.484 0.137000000000007  25.129 0.137000000000007  Z M 16.599 23.596  C 16.599 21.832  18.034 20.398  19.798 20.398  C 21.562 20.398  22.997 21.833  22.997 23.596  C 22.997 25.359  21.562 26.795  19.798 26.795  C 18.034 26.795  16.599 25.36  16.599 23.596  Z M 8.07 12.934  C 8.07 14.698  6.635 16.133  4.871 16.133  C 3.107 16.133  1.672 14.698  1.672 12.934  C 1.672 11.17  3.107 9.735  4.871 9.735  C 6.635 9.735  8.07 11.17  8.07 12.934  Z M 28.328 4.404  C 28.328 6.168  26.893 7.603  25.129 7.603  C 23.365 7.603  21.93 6.168  21.93 4.404  C 21.93 2.64  23.365 1.205  25.129 1.205  C 26.893 1.205  28.328 2.64  28.328 4.404  Z " fill-rule="nonzero" fill="#666666" stroke="none" transform="matrix(1 0 0 1 21 331 )" />
  </g>
</svg>