<?xml version="1.0" encoding="utf-8"?>
<svg version="1.1" xmlns:xlink="http://www.w3.org/1999/xlink" width="25px" height="21px" xmlns="http://www.w3.org/2000/svg">
  <g transform="matrix(1 0 0 1 -280 -94 )">
    <path d="M 22.65625 18.6732954545455  C 22.9366987179487 18.3948863636364  23.0769230769231 18.0568181818181  23 17.6590909090909  L 23 7.15909090909088  C 23.0769230769231 6.76136363636363  22.9366987179487 6.4232954545455  22.65625 6.14488636363637  C 22.3758012820513 5.86647727272725  22.0352564102564 5.72727272727275  21.6346153846154 6  L 11.0576923076923 6  C 10.6570512820513 5.72727272727275  10.3165064102564 5.58806818181813  10.0360576923077 5.30965909090912  C 9.75560897435898 5.03125  9.61538461538461 4.69318181818187  9.61538461538461 4.2954545454545  L 9.61538461538461 3.34090909090912  C 9.61538461538461 2.94318181818187  9.47516025641025 2.60511363636363  9.19471153846155 2.3267045454545  C 8.91426282051282 2.0482954545455  8.57371794871796 1.90909090909088  8.17307692307693 1.90909090909088  L 3.36538461538461 1.90909090909088  C 2.96474358974359 1.90909090909088  2.62419871794873 2.0482954545455  2.34375 2.3267045454545  C 2.06330128205127 2.60511363636363  1.92307692307693 2.94318181818187  2 3.34090909090912  L 2 17.6590909090909  C 1.92307692307693 18.0568181818181  2.06330128205127 18.3948863636364  2.34375 18.6732954545455  C 2.62419871794873 18.9517045454545  2.96474358974359 19.0909090909091  3.36538461538461 19  L 21.6346153846154 19  C 22.0352564102564 19.0909090909091  22.3758012820513 18.9517045454545  22.65625 18.6732954545455  Z M 24.0084134615385 4.80255681818187  C 24.6694711538462 5.45880681818187  25 6.24431818181813  25 7.15909090909088  L 25 17.6590909090909  C 25 18.5738636363636  24.6694711538462 19.359375  24.0084134615385 20.015625  C 23.3473557692308 20.671875  22.5560897435898 21  21.6346153846154 21  L 3.36538461538461 21  C 2.44391025641025 21  1.65264423076923 20.671875  0.991586538461547 20.015625  C 0.33052884615384 19.359375  0 18.5738636363636  0 17.6590909090909  L 0 3.34090909090912  C 0 2.42613636363637  0.33052884615384 1.640625  0.991586538461547 0.984375  C 1.65264423076923 0.328125  2.44391025641025 0  3.36538461538461 0  L 8.17307692307693 0  C 9.09455128205127 0  9.88581730769232 0.328125  10.546875 0.984375  C 11.2079326923077 1.640625  11.5384615384615 2.42613636363637  11.5384615384615 3.34090909090912  L 11.5384615384615 4  L 21.6346153846154 4  C 22.5560897435898 3.81818181818187  23.3473557692308 4.14630681818187  24.0084134615385 4.80255681818187  Z " fill-rule="nonzero" fill="#ffffff" stroke="none" transform="matrix(1 0 0 1 280 94 )" />
  </g>
</svg>