<?xml version="1.0" encoding="utf-8"?>
<svg version="1.1" xmlns:xlink="http://www.w3.org/1999/xlink" width="15px" height="9px" xmlns="http://www.w3.org/2000/svg">
  <g transform="matrix(1 0 0 1 -310 -790 )">
    <path d="M 14.8496993987976 0.89690721649481  C 14.9498997995992 0.996563573883122  15 1.11116838487976  15 1.24072164948461  C 15 1.37027491408935  14.9498997995992 1.48487972508588  14.8496993987976 1.58453608247419  L 7.84569138276555 8.55051546391758  C 7.74549098196394 8.65017182130578  7.63026052104209 8.70000000000005  7.5 8.70000000000005  C 7.36973947895791 8.70000000000005  7.25450901803606 8.65017182130578  7.15430861723445 8.55051546391758  L 0.150300601202389 1.58453608247419  C 0.0501002004008342 1.48487972508588  0 1.37027491408935  0 1.24072164948461  C 0 1.11116838487976  0.0501002004008342 0.996563573883122  0.150300601202389 0.89690721649481  L 0.901803607214447 0.149484536082468  C 1.002004008016 0.0498281786941561  1.11723446893785 0  1.24749498997994 0  C 1.37775551102203 0  1.49298597194388 0.0498281786941561  1.59318637274549 0.149484536082468  L 7.5 6.02422680412371  L 13.4068136272545 0.149484536082468  C 13.5070140280561 0.0498281786941561  13.622244488978 0  13.7525050100201 0  C 13.8827655310621 0  13.997995991984 0.0498281786941561  14.0981963927856 0.149484536082468  L 14.8496993987976 0.89690721649481  Z " fill-rule="nonzero" fill="#666666" stroke="none" transform="matrix(1 0 0 1 310 790 )" />
  </g>
</svg>