<?xml version="1.0" encoding="utf-8"?>
<svg version="1.1" xmlns:xlink="http://www.w3.org/1999/xlink" width="26px" height="24px" xmlns="http://www.w3.org/2000/svg">
  <g transform="matrix(1 0 0 1 -22 -41 )">
    <path d="M 25.9144084319987 10.9644460880131  C 25.9144084319987 6.61926145068412  23.8080476984374 2.58693010724284  20.2168753002345 0.153626710338642  C 19.8715702619458 -0.0897036293517886  19.4226737121705 0.0145808019441347  19.2154906891972 0.362195572930432  C 18.9737771623951 0.709810343916729  19.0773686738817 1.16170954619895  19.4226737121705 1.37027840879074  C 22.5994800644268 3.52548998890592  24.4986577750148 7.10592213006498  24.4986577750148 10.9644460880131  C 24.4986577750148 17.3257963970627  19.3536127045127 22.5052564847588  13.0345305038289 22.5052564847588  C 6.71544830314505 22.5052564847588  1.53587272881404 17.3257963970627  1.53587272881404 10.9644460880131  C 1.53587272881404 7.24496803845949  3.33145892791546 3.69929737439907  6.37014326485632 1.54408579428389  C 6.68091779931618 1.30075545459346  6.7845093108028 0.848856252311293  6.54279578400067 0.53600295842358  C 6.30108225719857 0.188388187437283  5.85218570742322 0.118865233240001  5.54141117296336 0.362195572930432  C 2.1228912939049 2.79549896983463  0.0855915680013482 6.75830735907869  0.0855915680013482 10.9644460880131  C 0.0855915680013482 18.1600718474299  5.88671621125209 24  13 24  C 20.1132837887479 24  25.9144084319987 18.1600718474299  25.9144084319987 10.9644460880131  Z " fill-rule="nonzero" fill="#000000" stroke="none" transform="matrix(1 0 0 1 22 41 )" />
  </g>
</svg>