<?xml version="1.0" encoding="utf-8"?>
<svg version="1.1" xmlns:xlink="http://www.w3.org/1999/xlink" width="28px" height="30px" xmlns="http://www.w3.org/2000/svg">
  <g transform="matrix(1 0 0 1 -310 -31 )">
    <path d="M 15.604 1.86214285714285  L 15.599 1.86214285714286  L 15.599 4.64571428571428  L 16.399 4.8675  C 17.304 5.11821428571429  18.167 5.50714285714286  18.965 6.02571428571429  L 19.68 6.49071428571428  L 21.54 4.49785714285714  L 23.802 6.92142857142857  L 21.914 8.94428571428571  L 22.321 9.70285714285714  C 22.772 10.5439285714286  23.109 11.4546428571429  23.323 12.4103571428571  L 23.519 13.2857142857143  L 26.263 13.2857142857143  L 26.263 16.7132142857143  L 23.457 16.7132142857143  L 23.241 17.5510714285714  C 23.008 18.4553571428571  22.658 19.3232142857143  22.201 20.1289285714286  L 21.767 20.8960714285714  L 23.803 23.0764285714286  L 21.541 25.5  L 19.477 23.2885714285714  L 18.77 23.7246428571429  C 18.036 24.1767857142857  17.239 24.5228571428571  16.402 24.7542857142857  L 15.602 24.975  L 15.602 28.1367857142857  L 12.403 28.1367857142857  L 12.403 24.975  L 11.603 24.7542857142857  C 10.766 24.5228571428571  9.96899999999999 24.1767857142857  9.23500000000001 23.7246428571429  L 8.52699999999999 23.2885714285714  L 6.46300000000002 25.5  L 4.20100000000002 23.0764285714286  L 6.23700000000002 20.8960714285714  L 5.803 20.1289285714286  C 5.346 19.3221428571429  4.99599999999998 18.4553571428571  4.76299999999998 17.5510714285714  L 4.54700000000003 16.7132142857143  L 1.74099999999999 16.7132142857143  L 1.74099999999999 13.2857142857143  L 4.48500000000001 13.2857142857143  L 4.68099999999998 12.4103571428571  C 4.89400000000001 11.4557142857143  5.23199999999997 10.5439285714286  5.68299999999999 9.70285714285714  L 6.08999999999998 8.94428571428571  L 4.202 6.92142857142857  L 6.464 4.49785714285714  L 8.32400000000001 6.49071428571428  L 9.03899999999999 6.02571428571428  C 9.83699999999999 5.50714285714285  10.7 5.11714285714285  11.605 4.86749999999999  L 12.405 4.64571428571428  L 12.405 1.86214285714285  L 15.604 1.86214285714285  Z M 9.202 15  C 9.202 17.835  11.354 20.1417857142857  14 20.1417857142857  C 16.646 20.1417857142857  18.798 17.835  18.798 15  C 18.798 12.165  16.646 9.85821428571428  14 9.85821428571428  C 11.354 9.85821428571428  9.202 12.165  9.202 15  Z M 16.664 0.719999999999999  L 16.666 0.719999999999999  L 11.335 0.719999999999999  L 11.335 3.76178571428572  C 10.317 4.04357142857143  9.36000000000001 4.47964285714286  8.483 5.04964285714286  L 6.46100000000001 2.88321428571429  L 2.69200000000001 6.9225  L 4.75700000000001 9.135  C 4.25900000000001 10.0639285714286  3.88200000000001 11.0742857142857  3.64299999999997 12.1446428571429  L 0.673000000000002 12.1446428571429  L 0.673000000000002 17.8564285714286  L 3.733 17.8564285714286  C 3.99599999999998 18.8775  4.38799999999998 19.8385714285714  4.88900000000001 20.7235714285714  L 2.69099999999997 23.0785714285714  L 6.45999999999998 27.1178571428571  L 8.70100000000002 24.7167857142857  C 9.517 25.2192857142857  10.401 25.6039285714286  11.334 25.8621428571429  L 11.334 29.2810714285714  L 16.665 29.2810714285714  L 16.665 25.8621428571429  C 17.598 25.6039285714286  18.482 25.2192857142857  19.298 24.7167857142857  L 21.539 27.1178571428571  L 25.308 23.0785714285714  L 23.11 20.7235714285714  C 23.611 19.8385714285714  24.003 18.8775  24.266 17.8564285714286  L 27.326 17.8564285714286  L 27.326 12.1446428571429  L 24.356 12.1446428571429  C 24.117 11.0742857142857  23.74 10.065  23.242 9.135  L 25.307 6.9225  L 21.538 2.88321428571428  L 19.516 5.04964285714286  C 18.639 4.47964285714286  17.682 4.04357142857143  16.664 3.76178571428572  L 16.664 0.719999999999999  Z M 14 18.9996428571429  C 11.938 18.9996428571429  10.268 17.2092857142857  10.268 15  C 10.268 12.7907142857143  11.938 11.0014285714286  14 11.0014285714286  C 16.062 11.0014285714286  17.732 12.7917857142857  17.732 15  C 17.732 17.2092857142857  16.062 18.9996428571429  14 18.9996428571429  Z " fill-rule="nonzero" fill="#ffffff" stroke="none" transform="matrix(1 0 0 1 310 31 )" />
  </g>
</svg>