<?xml version="1.0" encoding="utf-8"?>
<svg version="1.1" xmlns:xlink="http://www.w3.org/1999/xlink" width="9px" height="10px" xmlns="http://www.w3.org/2000/svg">
  <g transform="matrix(1 0 0 1 -30 -310 )">
    <path d="M 4.956 0.0130000000000017  L 4.955 0.0129999999999999  C 2.249 0.0129999999999999  0.738 1.685  0.719000000000001 4.335  L 1.895 4.335  C 1.858 2.413  2.865 1.003  4.9 1.003  C 6.355 1.003  7.568 2.029  7.568 3.522  C 7.568 4.492  7.045 5.276  6.355 5.929  C 4.937 7.245  4.54 7.864  4.468 9.667  L 5.659 9.667  C 5.729 8.032  5.693 8.065  7.12 6.638  C 8.072 5.742  8.743 4.846  8.743 3.465  C 8.743 1.301  7.026 0.0130000000000017  4.956 0.0130000000000017  Z " fill-rule="nonzero" fill="#000000" stroke="none" transform="matrix(1 0 0 1 30 310 )" />
  </g>
</svg>