<?xml version="1.0" encoding="utf-8"?>
<svg version="1.1" xmlns:xlink="http://www.w3.org/1999/xlink" width="20px" height="20px" xmlns="http://www.w3.org/2000/svg">
  <g transform="matrix(1 0 0 1 -306 -570 )">
    <path d="M 12.9947916666667 12.7864583333334  C 13.7934027777778 12.0399305555555  14.7395833333333 11.6666666666666  15.8333333333333 11.6666666666666  C 16.9878472222222 11.6666666666666  17.9709201388889 12.0724826388889  18.7825520833333 12.8841145833334  C 19.5941840277778 13.6957465277777  20 14.6788194444445  20 15.8333333333334  C 20 16.9878472222223  19.5941840277778 17.9709201388889  18.7825520833333 18.7825520833334  C 17.9709201388889 19.5941840277777  16.9878472222222 20  15.8333333333333 20  C 14.6788194444445 20  13.6957465277778 19.5941840277777  12.8841145833333 18.7825520833334  C 12.0724826388889 17.9709201388889  11.6666666666667 16.9878472222223  11.6666666666667 15.8333333333334  C 11.6666666666667 15.7291666666666  11.6753472222222 15.5815972222223  11.6927083333333 15.390625  L 7.00520833333331 13.046875  C 6.20659722222223 13.7934027777777  5.26041666666669 14.1666666666666  4.16666666666669 14.1666666666666  C 3.01215277777777 14.1666666666666  2.02907986111114 13.7608506944445  1.21744791666669 12.94921875  C 0.405815972222229 12.1375868055555  0 11.1545138888889  0 10  C 0 8.84548611111109  0.405815972222229 7.86241319444446  1.21744791666669 7.05078125  C 2.02907986111114 6.23914930555554  3.01215277777777 5.83333333333337  4.16666666666669 5.83333333333337  C 5.26041666666669 5.83333333333337  6.20659722222223 6.20659722222229  7.00520833333331 6.953125  L 11.6927083333333 4.609375  C 11.6753472222222 4.41840277777771  11.6666666666667 4.27083333333337  11.6666666666667 4.16666666666663  C 11.6666666666667 3.01215277777771  12.0724826388889 2.02907986111109  12.8841145833333 1.21744791666663  C 13.6957465277778 0.405815972222285  14.6788194444445 0  15.8333333333333 0  C 16.9878472222222 0  17.9709201388889 0.405815972222285  18.7825520833333 1.21744791666663  C 19.5941840277778 2.02907986111109  20 3.01215277777771  20 4.16666666666663  C 20 5.32118055555554  19.5941840277778 6.30425347222229  18.7825520833333 7.11588541666663  C 17.9709201388889 7.92751736111109  16.9878472222222 8.33333333333337  15.8333333333333 8.33333333333337  C 14.7395833333333 8.33333333333337  13.7934027777778 7.96006944444446  12.9947916666667 7.21354166666663  L 8.30729166666669 9.55729166666663  C 8.32465277777777 9.74826388888891  8.33333333333331 9.89583333333337  8.33333333333331 10  C 8.33333333333331 10.1041666666666  8.32465277777777 10.2517361111111  8.30729166666669 10.4427083333334  L 12.9947916666667 12.7864583333334  Z " fill-rule="nonzero" fill="#666666" stroke="none" transform="matrix(1 0 0 1 306 570 )" />
  </g>
</svg>