<?xml version="1.0" encoding="utf-8"?>
<svg version="1.1" xmlns:xlink="http://www.w3.org/1999/xlink" width="23px" height="27px" xmlns="http://www.w3.org/2000/svg">
  <g transform="matrix(1 0 0 1 -30 -22 )">
    <path d="M 22.8514583333333 22.703875  L 22.8514583333333 5.16062499999999  L 17.6917916666667 0  L 6.34033333333333 0  L 6.34033333333333 4.1285  L 0.148541666666659 4.1285  L 0.148541666666659 26.8314166666667  L 16.6596666666667 26.8314166666667  L 16.6596666666667 22.703875  L 22.8514583333333 22.703875  Z M 17.6917916666667 5.16062499999999  L 17.6917916666667 1.4605  L 21.3919166666667 5.16062499999999  L 17.6917916666667 5.16062499999999  Z M 15.6285 25.80025  L 1.18066666666667 25.80025  L 1.18066666666667 5.16062499999999  L 10.4688333333333 5.16062499999999  L 10.4688333333333 10.3202916666666  L 15.6285 10.3202916666666  L 15.6285 25.80025  Z M 11.5 9.28816666666667  L 11.5 5.58804166666667  L 15.200125 9.28816666666667  L 11.5 9.28816666666667  Z M 16.6596666666667 21.6727083333333  L 16.6596666666667 9.289125  L 11.5 4.12945833333333  L 7.37245833333333 4.12945833333333  L 7.37245833333333 1.03308333333333  L 16.660625 1.03308333333333  L 16.660625 6.19275  L 21.8202916666667 6.19275  L 21.8202916666667 21.6727083333333  L 16.660625 21.6727083333333  Z " fill-rule="nonzero" fill="#ffffff" stroke="none" transform="matrix(1 0 0 1 30 22 )" />
  </g>
</svg>