<?xml version="1.0" encoding="utf-8"?>
<svg version="1.1" xmlns:xlink="http://www.w3.org/1999/xlink" width="20px" height="17px" xmlns="http://www.w3.org/2000/svg">
  <g transform="matrix(1 0 0 1 0 -32 )">
    <path d="M 19.7526041666667 13.689375  C 19.9175347222222 13.855625  20 14.0525  20 14.28  L 20 15.96  C 20 16.1875  19.9175347222222 16.384375  19.7526041666667 16.550625  C 19.5876736111111 16.716875  19.3923611111111 16.8  19.1666666666667 16.8  L 0.833333333333332 16.8  C 0.607638888888889 16.8  0.412326388888889 16.716875  0.247395833333332 16.550625  C 0.0824652777777786 16.384375  0 16.1875  0 15.96  L 0 14.28  C 0 14.0525  0.0824652777777786 13.855625  0.247395833333332 13.689375  C 0.412326388888889 13.523125  0.607638888888889 13.44  0.833333333333332 13.44  L 19.1666666666667 13.44  C 19.3923611111111 13.44  19.5876736111111 13.523125  19.7526041666667 13.689375  Z M 19.7526041666667 6.969375  C 19.9175347222222 7.135625  20 7.3325  20 7.56  L 20 9.23999999999999  C 20 9.4675  19.9175347222222 9.664375  19.7526041666667 9.830625  C 19.5876736111111 9.996875  19.3923611111111 10.08  19.1666666666667 10  L 0.833333333333332 10  C 0.607638888888889 10.08  0.412326388888889 9.996875  0.247395833333332 9.830625  C 0.0824652777777786 9.664375  0 9.4675  0 9.23999999999999  L 0 7.56  C 0 7.3325  0.0824652777777786 7.135625  0.247395833333332 6.969375  C 0.412326388888889 6.803125  0.607638888888889 6.72  0.833333333333332 7  L 19.1666666666667 7  C 19.3923611111111 6.72  19.5876736111111 6.803125  19.7526041666667 6.969375  Z M 19.7526041666667 0.249375000000001  C 19.9175347222222 0.415624999999999  20 0.612499999999997  20 0.840000000000003  L 20 2.52  C 20 2.7475  19.9175347222222 2.944375  19.7526041666667 3.110625  C 19.5876736111111 3.276875  19.3923611111111 3.36  19.1666666666667 3.36  L 0.833333333333332 3.36  C 0.607638888888889 3.36  0.412326388888889 3.276875  0.247395833333332 3.110625  C 0.0824652777777786 2.944375  0 2.7475  0 2.52  L 0 0.840000000000003  C 0 0.612499999999997  0.0824652777777786 0.415624999999999  0.247395833333332 0.249375000000001  C 0.412326388888889 0.0831249999999955  0.607638888888889 0  0.833333333333332 0  L 19.1666666666667 0  C 19.3923611111111 0  19.5876736111111 0.0831249999999955  19.7526041666667 0.249375000000001  Z " fill-rule="nonzero" fill="#ffffff" stroke="none" transform="matrix(1 0 0 1 0 32 )" />
  </g>
</svg>