<?xml version="1.0" encoding="utf-8"?>
<svg version="1.1" xmlns:xlink="http://www.w3.org/1999/xlink" width="30px" height="24px" xmlns="http://www.w3.org/2000/svg">
  <g transform="matrix(1 0 0 1 -165 -569 )">
    <path d="M 13.9910313901345 17.55  L 14.932735426009 17.55  L 16.8834080717489 15.622159090909  L 14.3273542600897 13.0960227272727  L 12.3766816143498 15.0238636363637  L 12.3766816143498 15.9545454545454  L 13.9910313901345 15.9545454545454  L 13.9910313901345 17.55  Z M 22.3150224215246 6.13252840909092  C 22.5056053811659 5.94417613636369  22.5112107623318 5.76136363636363  22.3318385650224 5.58409090909095  C 22.152466367713 5.40681818181827  21.9674887892377 5.41235795454543  21.7769058295964 5.60071022727266  L 15.8912556053812 11.417471590909  C 15.7006726457399 11.6058238636364  15.695067264574 11.7886363636363  15.8744394618834 11.965909090909  C 16.0538116591928 12.1431818181818  16.2387892376682 12.1376420454546  16.4293721973094 11.9492897727273  L 22.3150224215246 6.13252840909092  Z M 23.3408071748879 14.9740056818182  C 23.5650224215247 15.0626420454546  23.677130044843 15.2232954545455  23.677130044843 15.455965909091  L 23.677130044843 18.6136363636364  C 23.677130044843 19.9321022727273  23.2034753363229 21.0594460227273  22.2561659192825 21.9956676136363  C 21.3088565022422 22.9318892045454  20.1681614349776 23.4  18.8340807174888 23  L 4.84304932735427 23  C 3.50896860986546 23.4  2.36827354260089 22.9318892045454  1.42096412556054 21.9956676136363  C 0.473654708520172 21.0594460227273  0 19.9321022727273  0 18.6136363636364  L 0 4.7863636363636  C 0 3.46789772727266  0.473654708520172 2.34055397727275  1.42096412556054 1.40433238636365  C 2.36827354260089 0.46811079545455  3.50896860986546 0  4.84304932735427 0  L 18.8340807174888 0  C 19.5403587443946 0  20.1961883408072 0.138494318181756  20.8015695067265 0.415482954545382  C 20.9697309417041 0.493039772727343  21.0706278026906 0.62045454545455  21.1042600896861 0.797727272727343  C 21.1378923766816 0.986079545454572  21.0874439461884 1.14673295454543  20.9529147982063 1.27968750000002  L 20.1289237668161 2.09403409090908  C 19.9719730941704 2.24914772727266  19.792600896861 2.29346590909097  19.5908071748879 2.22698863636367  C 19.3329596412556 2.16051136363637  19.0807174887892 2.12727272727273  18.8340807174888 2.12727272727273  L 4.84304932735427 2.12727272727273  C 4.1031390134529 2.12727272727273  3.46973094170403 2.38764204545464  2.94282511210764 2.90838068181824  C 2.41591928251123 3.42911931818173  2.152466367713 4.05511363636367  2.152466367713 4.7863636363636  L 2.152466367713 18.6136363636364  C 2.152466367713 19.3448863636363  2.41591928251123 19.9708806818182  2.94282511210764 20.4916193181817  C 3.46973094170403 21.0123579545455  4.1031390134529 21.2727272727273  4.84304932735427 21  L 18.8340807174888 21  C 19.5739910313901 21.2727272727273  20.207399103139 21.0123579545455  20.7343049327354 20.4916193181817  C 21.2612107623318 19.9708806818182  21.52466367713 19.3448863636363  21.52466367713 18.6136363636364  L 21.52466367713 16.5196022727273  C 21.52466367713 16.3755681818183  21.5751121076233 16.2536931818182  21.6760089686099 16.1539772727273  L 22.7522421524664 15.090340909091  C 22.920403587444 14.9241477272727  23.1165919282511 14.8853693181818  23.3408071748879 14.9740056818182  Z M 10.762331838565 14.3590909090909  L 22.0627802690583 3.19090909090903  L 26.9058295964126 7.97727272727275  L 15.6053811659193 19.1454545454546  L 10.762331838565 19.1454545454546  L 10.762331838565 14.3590909090909  Z M 30 4.25454545454545  C 30 4.69772727272732  29.8430493273543 5.07443181818178  29.5291479820628 5.38465909090905  L 27.9820627802691 6.91363636363633  L 23.1390134529148 2.12727272727273  L 24.6860986547085 0.59829545454545  C 25 0.288068181818289  25.3811659192825 0.132954545454595  25.829596412556 0.132954545454595  C 26.2780269058296 0.132954545454595  26.6591928251121 0.288068181818289  26.9730941704036 0.59829545454545  L 29.5291479820628 3.12443181818173  C 29.8430493273543 3.43465909090901  30 3.81136363636369  30 4.25454545454545  Z " fill-rule="nonzero" fill="#666666" stroke="none" transform="matrix(1 0 0 1 165 569 )" />
  </g>
</svg>