<?xml version="1.0" encoding="utf-8"?>
<svg version="1.1" xmlns:xlink="http://www.w3.org/1999/xlink" width="26px" height="16px" xmlns="http://www.w3.org/2000/svg">
  <g transform="matrix(1 0 0 1 -30 -582 )">
    <path d="M 26 0.748936170212801  C 26 0.347506382978736  25.6769635416667 0.0226723404255154  25.2777552083333 0  L 0.722244791666668 0  C 0.323036458333334 0.0226723404255154  0 0.347506382978736  0 0.748936170212801  L 0 13.0950127659574  C 0 14.6971914893617  1.29559895833333 16  2.88891145833333 16  L 23.11115625 16  C 24.7044010416667 16  26 14.6971914893617  26 13.0950127659574  L 26 0.748936170212801  Z M 24.555578125 1.47519999999997  L 24.555578125 13.0950127659574  C 24.555578125 13.8956936170213  23.90740625 14.5474723404255  23.11115625 14.5474723404255  L 2.88891145833333 14.5474723404255  C 2.09266145833332 14.5474723404255  1.44448958333334 13.8956936170213  1.44448958333334 13.0950127659574  L 1.44448958333334 1.47519999999997  L 24.555578125 1.47519999999997  Z " fill-rule="nonzero" fill="#666666" stroke="none" transform="matrix(1 0 0 1 30 582 )" />
  </g>
</svg>