<?xml version="1.0" encoding="utf-8"?>
<svg version="1.1" xmlns:xlink="http://www.w3.org/1999/xlink" width="6px" height="4px" xmlns="http://www.w3.org/2000/svg">
  <g transform="matrix(1 0 0 1 -40 -572 )">
    <path d="M 5.82774418604652 2.88849230769233  L 3.59518604651163 0.262830769230732  C 3.3146511627907 -0.0679384615384606  2.68527906976743 -0.0679384615384606  2.40474418604651 0.262830769230732  L 0.172186046511627 2.88849230769233  C -0.0749302325581311 3.17821538461544  -0.0080232558139528 3.58978461538459  0.321139534883713 3.80707692307692  C 0.650372093023265 4.02504615384612  1.11690697674419 3.96732307692309  1.36255813953488 3.67569230769232  L 3 1.75064615384611  L 4.63737209302326 3.67563076923079  C 4.78346511627907 3.84806153846148  5.00658139534883 3.93846153846152  5.23332558139535 3.93846153846152  C 5.38883720930232 3.93846153846152  5.54511627906976 3.89550769230766  5.67879069767442 3.80707692307692  C 6.00802325581395 3.58978461538459  6.07486046511629 3.17821538461544  5.82774418604652 2.88849230769233  Z " fill-rule="nonzero" fill="#666666" stroke="none" transform="matrix(1 0 0 1 40 572 )" />
  </g>
</svg>