<?xml version="1.0" encoding="utf-8"?>
<svg version="1.1" xmlns:xlink="http://www.w3.org/1999/xlink" width="26px" height="16px" xmlns="http://www.w3.org/2000/svg">
  <g transform="matrix(1 0 0 1 -30 -563 )">
    <path d="M 25.9325350649351 7.988629787234  C 25.9324675324675 7.79574468085104  25.8564935064935 7.61137021276591  25.7214285714286 7.47519999999997  L 18.5179428571429 0.212765957446777  C 18.3828779220779 0.0765957446808443  18.2 0  18.008612987013 0  L 2.88134025974026 0  C 1.29223376623376 0  0 1.30280851063833  0 2.90498723404255  L 0 15.2510638297872  C 0 15.6524936170213  0.322197402597396 15.9773276595745  0.720368831168827 16  L 25.2121662337662 16  C 25.6103376623377 15.9773276595745  25.9325350649351 15.6524936170213  25.9325350649351 15.2510638297872  L 25.9325350649351 7.988629787234  Z M 18.7289818181818 5.8099744680851  L 18.7289818181818 2.47945531914888  L 23.4731376623377 7.2624340425532  L 20.169651948052 7.2624340425532  C 19.3754701298701 7.2624340425532  18.7289818181818 6.61065531914892  18.7289818181818 5.8099744680851  Z M 24.4917974025974 8.71489361702129  L 24.4917974025974 14.5248  L 1.44067012987013 14.5248  L 1.44067012987013 2.90498723404255  C 1.44067012987013 2.10430638297873  2.08715844155844 1.45252765957446  2.88134025974026 1.45252765957446  L 17.2883116883117 1.45252765957446  L 17.2883116883117 5.8099744680851  C 17.2883116883117 7.41208510638296  18.5805454545455 8.71489361702129  20.1697194805195 8.71489361702129  L 24.4917974025974 8.71489361702129  Z " fill-rule="nonzero" fill="#666666" stroke="none" transform="matrix(1 0 0 1 30 563 )" />
  </g>
</svg>