<?xml version="1.0" encoding="utf-8"?>
<svg version="1.1" xmlns:xlink="http://www.w3.org/1999/xlink" width="6px" height="4px" xmlns="http://www.w3.org/2000/svg">
  <g transform="matrix(1 0 0 1 -40 -585 )">
    <path d="M 0.172255813953498 1.11156923076919  L 2.40481395348837 3.73716923076927  C 2.5450465116279 3.90258461538463  2.76600000000001 4  3 4  C 3.23400000000001 4  3.4549534883721 3.90258461538463  3.59518604651163 3.73716923076927  L 5.82774418604652 1.11150769230767  C 6.07486046511629 0.821784615384558  6.0079534883721 0.410215384615412  5.67879069767442 0.19292307692308  C 5.35172093023256 -0.0243692307692527  4.88448837209302 0.0332923076923635  4.63737209302326 0.324307692307684  L 3 2.24935384615389  L 1.36262790697675 0.324369230769207  C 1.11551162790697 0.032676923076906  0.648209302325583 -0.025661538461577  0.321209302325585 0.192984615384603  C -0.0080232558139528 0.410276923076935  -0.0748604651162879 0.821846153846195  0.172255813953498 1.11156923076919  Z " fill-rule="nonzero" fill="#666666" stroke="none" transform="matrix(1 0 0 1 40 585 )" />
  </g>
</svg>