<?xml version="1.0" encoding="utf-8"?>
<svg version="1.1" xmlns:xlink="http://www.w3.org/1999/xlink" width="20px" height="19px" xmlns="http://www.w3.org/2000/svg">
  <g transform="matrix(1 0 0 1 -320 -34 )">
    <path d="M 16.9807692307692 14.725  L 16.9792307692308 14.725  L 16.9792307692308 8.21332000000001  C 16.9792307692308 4.82220000000001  14.4961538461538 2.0102  11.23 1.43791999999999  L 11.23 0.920359999999988  C 11.23 0.47272000000001  10.8630769230769 0.110199999999992  10.41 0.110199999999992  L 9.58999999999998 0.110199999999992  C 9.1369230769231 0.110199999999992  8.76999999999998 0.47272000000001  8.76999999999998 0.920359999999988  L 8.76999999999998 1.4402  C 5.51153846153846 2.01856000000001  3.03692307692307 4.82828000000001  3.03692307692307 8.21332000000001  L 3.03692307692307 14.725  L 0.158461538461552 17.02704  L 0.158461538461552 18  L 19.8430769230769 18  L 19.8430769230769 17.02704  L 16.9807692307692 14.725  Z " fill-rule="nonzero" fill="#ffffff" stroke="none" transform="matrix(1 0 0 1 320 34 )" />
  </g>
</svg>