<?xml version="1.0" encoding="utf-8"?>
<svg version="1.1" xmlns:xlink="http://www.w3.org/1999/xlink" width="28px" height="28px" xmlns="http://www.w3.org/2000/svg">
  <g transform="matrix(1 0 0 1 -23 -423 )">
    <path d="M 15.604 1.738  L 15.599 1.738  L 15.599 4.336  L 16.399 4.543  C 17.304 4.777  18.167 5.14  18.965 5.624  L 19.68 6.058  L 21.54 4.198  L 23.802 6.46  L 21.914 8.348  L 22.321 9.056  C 22.772 9.841  23.109 10.691  23.323 11.583  L 23.519 12.4  L 26.263 12.4  L 26.263 15.599  L 23.457 15.599  L 23.241 16.381  C 23.008 17.225  22.658 18.035  22.201 18.787  L 21.767 19.503  L 23.803 21.538  L 21.541 23.8  L 19.477 21.736  L 18.77 22.143  C 18.036 22.565  17.239 22.888  16.402 23.104  L 15.602 23.31  L 15.602 26.261  L 12.403 26.261  L 12.403 23.31  L 11.603 23.104  C 10.766 22.888  9.969 22.565  9.235 22.143  L 8.527 21.736  L 6.463 23.8  L 4.201 21.538  L 6.237 19.503  L 5.803 18.787  C 5.346 18.034  4.996 17.225  4.763 16.381  L 4.547 15.599  L 1.741 15.599  L 1.741 12.4  L 4.485 12.4  L 4.681 11.583  C 4.894 10.692  5.232 9.841  5.683 9.056  L 6.09 8.348  L 4.202 6.46  L 6.464 4.198  L 8.324 6.058  L 9.039 5.624  C 9.837 5.14  10.7 4.776  11.605 4.543  L 12.405 4.336  L 12.405 1.738  L 15.604 1.738  Z M 9.202 14  C 9.202 16.646  11.354 18.799  14 18.799  C 16.646 18.799  18.798 16.646  18.798 14  C 18.798 11.354  16.646 9.201  14 9.201  C 11.354 9.201  9.202 11.354  9.202 14  Z M 16.664 0.671999999999997  L 16.666 0.672  L 11.335 0.672  L 11.335 3.511  C 10.317 3.774  9.36 4.181  8.483 4.713  L 6.461 2.691  L 2.692 6.461  L 4.757 8.526  C 4.259 9.393  3.882 10.336  3.643 11.335  L 0.673 11.335  L 0.673 16.666  L 3.733 16.666  C 3.996 17.619  4.388 18.516  4.889 19.342  L 2.691 21.54  L 6.46 25.31  L 8.701 23.069  C 9.517 23.538  10.401 23.897  11.334 24.138  L 11.334 27.329  L 16.665 27.329  L 16.665 24.138  C 17.598 23.897  18.482 23.538  19.298 23.069  L 21.539 25.31  L 25.308 21.54  L 23.11 19.342  C 23.611 18.516  24.003 17.619  24.266 16.666  L 27.326 16.666  L 27.326 11.335  L 24.356 11.335  C 24.117 10.336  23.74 9.394  23.242 8.526  L 25.307 6.461  L 21.538 2.691  L 19.516 4.713  C 18.639 4.181  17.682 3.774  16.664 3.511  L 16.664 0.671999999999997  Z M 14 17.733  C 11.938 17.733  10.268 16.062  10.268 14  C 10.268 11.938  11.938 10.268  14 10.268  C 16.062 10.268  17.732 11.939  17.732 14  C 17.732 16.062  16.062 17.733  14 17.733  Z " fill-rule="nonzero" fill="#000000" stroke="none" transform="matrix(1 0 0 1 23 423 )" />
  </g>
</svg>