<?xml version="1.0" encoding="utf-8"?>
<svg version="1.1" xmlns:xlink="http://www.w3.org/1999/xlink" width="20px" height="14px" xmlns="http://www.w3.org/2000/svg">
  <g transform="matrix(1 0 0 1 -45 -15 )">
    <path d="M 17.9815789473684 0.315789473684205  L 17.9828947368421 0.317105263157893  L 6.72105263157895 11.2368421052632  L 2.77631578947369 7.29210526315789  C 2.36578947368421 6.88157894736841  1.7 6.88157894736841  1.28815789473684 7.29210526315789  C 0.876315789473687 7.70263157894737  0.877631578947373 8.36842105263158  1.28815789473684 8.78026315789474  L 5.96578947368421 13.4578947368421  C 6.17105263157895 13.6631578947368  6.44078947368421 13.7657894736842  6.70921052631579 13.7657894736842  C 6.97236842105263 13.7657894736842  7.23684210526316 13.6671052631579  7.44078947368421 13.4697368421053  L 19.446052631579 1.82763157894736  C 19.8631578947368 1.42236842105263  19.8736842105263 0.756578947368418  19.4697368421053 0.339473684210523  C 19.0631578947368 -0.0789473684210558  18.3986842105263 -0.0881578947368444  17.9815789473684 0.315789473684205  Z " fill-rule="nonzero" fill="#ffffff" stroke="none" transform="matrix(1 0 0 1 45 15 )" />
  </g>
</svg>