<?xml version="1.0" encoding="utf-8"?>
<svg version="1.1" xmlns:xlink="http://www.w3.org/1999/xlink" width="21px" height="6px" xmlns="http://www.w3.org/2000/svg">
  <g transform="matrix(1 0 0 1 -28 -365 )">
    <path d="M 0.17536492890995 4.81734375000002  C -0.0741469194312749 5.12531250000001  -0.0114454976303264 5.56546874999998  0.315398104265405 5.80059374999996  C 0.642440758293837 6.03562499999998  1.10961611374407 5.97646874999998  1.35922748815165 5.66859375000001  C 3.5558672985782 2.95762500000001  6.88750236966825 1.40296875000001  10.5 1.40296875000001  C 14.1124976303318 1.40296875000001  17.4441327014218 2.95771875000003  19.6407725118484 5.66859375000001  C 19.7873744075829 5.84943750000002  20.009018957346 5.94440625000004  20.2333507109005 5.94440625000004  C 20.3908009478673 5.94440625000004  20.5497440758294 5.89753125000004  20.6846018957346 5.80059374999996  C 21.0114454976303 5.56546874999998  21.0741469194313 5.12531250000001  20.8247345971564 4.81734375000002  C 18.3438483412322 1.75584375000005  14.5806682464455 0  10.5 0  C 6.41933175355449 0  2.65615165876777 1.75584375000005  0.17536492890995 4.81734375000002  Z " fill-rule="nonzero" fill="#666666" stroke="none" transform="matrix(1 0 0 1 28 365 )" />
  </g>
</svg>