<?xml version="1.0" encoding="utf-8"?>
<svg version="1.1" xmlns:xlink="http://www.w3.org/1999/xlink" width="60px" height="60px" xmlns="http://www.w3.org/2000/svg">
  <g transform="matrix(1 0 0 1 -120 -83 )">
    <path d="M 59.75 30  C 59.75 13.5691964285713  46.4308035714286 0.25  30 0.25  C 13.5691964285714 0.25  0.25 13.5691964285713  0.25 30  C 0.25 46.4308035714284  13.5714285714286 59.75  30 59.75  C 46.4308035714286 59.75  59.75 46.4308035714284  59.75 30  Z M 57.3705357142858 30  C 57.3705357142858 45.0915178571429  45.09375 57.3705357142856  30 57.3705357142856  C 14.9084821428571 57.3705357142856  2.62946428571433 45.0915178571429  2.62946428571433 30  C 2.62946428571433 14.9084821428571  14.90625 2.62946428571422  30 2.62946428571422  C 45.0915178571429 2.62946428571422  57.3705357142858 14.9084821428571  57.3705357142858 30  Z " fill-rule="nonzero" fill="#66cc66" stroke="none" transform="matrix(1 0 0 1 120 83 )" />
  </g>
</svg>