<?xml version="1.0" encoding="utf-8"?>
<svg version="1.1" xmlns:xlink="http://www.w3.org/1999/xlink" width="34px" height="24px" xmlns="http://www.w3.org/2000/svg">
  <g transform="matrix(1 0 0 1 -136 -102 )">
    <path d="M 29.9321203703704 0.545454545454504  L 29.9344027777778 0.547727272727343  L 10.3992777777778 19.409090909091  L 3.55662037037041 12.5954545454547  C 2.84450925925921 11.8863636363635  1.68961111111116 11.8863636363635  0.975217592592571 12.5954545454547  C 0.260824074074094 13.3045454545454  0.263106481481486 14.4545454545453  0.975217592592571 15.1659090909091  L 9.08917592592593 23.2454545454543  C 9.44523148148153 23.6000000000001  9.91312500000004 23.7772727272727  10.3787361111112 23.7772727272727  C 10.8352175925926 23.7772727272727  11.2939814814815 23.6068181818182  11.6477546296296 23.265909090909  L 32.4724398148148 3.15681818181815  C 33.195962962963 2.45681818181811  33.2142222222221 1.30681818181802  32.5135231481481 0.586363636363785  C 31.8082592592592 -0.13636363636374  30.6556435185186 -0.152272727272702  29.9321203703704 0.545454545454504  Z " fill-rule="nonzero" fill="#66cc66" stroke="none" transform="matrix(1 0 0 1 136 102 )" />
  </g>
</svg>