<?xml version="1.0" encoding="utf-8"?>
<svg version="1.1" xmlns:xlink="http://www.w3.org/1999/xlink" width="60px" height="60px" xmlns="http://www.w3.org/2000/svg">
  <g transform="matrix(1 0 0 1 -94 -73 )">
    <path d="M 59.988 30  C 59.988 13.4355  46.5645 0.0120000000000005  30 0.0120000000000005  C 13.4355 0.0120000000000005  0.0120000000000005 13.4355  0.0120000000000005 30  C 0.0120000000000005 46.5645  13.4355 59.988  30 59.988  C 46.5645 59.988  59.988 46.5645  59.988 30  Z M 57.5895 30  C 57.5895 45.21225  45.21225 57.5895  30 57.5895  C 14.78775 57.5895  2.4105 45.21225  2.4105 30  C 2.4105 14.78775  14.78775 2.41050000000001  30 2.41050000000001  C 45.21225 2.41050000000001  57.5895 14.78775  57.5895 30  Z " fill-rule="nonzero" fill="#ff0000" stroke="none" transform="matrix(1 0 0 1 94 73 )" />
  </g>
</svg>