<?xml version="1.0" encoding="utf-8"?>
<svg version="1.1" xmlns:xlink="http://www.w3.org/1999/xlink" width="8px" height="14px" xmlns="http://www.w3.org/2000/svg">
  <g transform="matrix(1 0 0 1 -44 -378 )">
    <path d="M 7.91723456790123 2.54309489051093  C 7.91723456790123 1.52262773722623  7.28849382716049 0.620189781021907  6.35279012345679 0.297372262773706  C 6.34745679012345 0.295532846715332  5.76592592592592 0.110875912408744  5.76592592592592 0.110875912408744  C 5.55535802469135 0.0443503649634636  5.32661728395061 0.0853284671533174  5.15032098765431 0.221854014598534  L 3.99071604938272 1.12020437956204  L 2.83111111111111 0.221854014598534  C 2.65471604938271 0.0852262773723282  2.42587654320988 0.0442481751824744  2.2155061728395 0.110875912408744  C 2.2155061728395 0.110875912408744  1.63397530864197 0.295532846715332  1.62864197530863 0.297372262773706  C 0.692938271604952 0.620189781021907  0.0642962962962983 1.52262773722623  0.0642962962962983 2.54309489051093  L 0.0642962962962983 6.15335766423357  C 0.0642962962962983 6.2926423357664  0.103604938271609 6.42886131386859  0.177679012345685 6.54515328467159  L 1.34785185185185 8.38773722627735  L 1.34785185185185 13.2266277372263  C 1.34785185185185 13.6207737226277  1.6565925925926 13.9402189781022  2.03753086419753 13.9402189781022  L 5.944 13.9402189781022  C 6.32493827160494 13.9402189781022  6.63367901234568 13.6207737226277  6.63367901234568 13.2266277372263  L 6.63367901234568 8.38773722627735  L 7.80385185185185 6.54515328467159  C 7.87782716049384 6.42875912408761  7.91723456790123 6.29254014598541  7.91723456790123 6.15335766423357  L 7.91723456790123 2.54309489051093  Z " fill-rule="nonzero" fill="#666666" stroke="none" transform="matrix(1 0 0 1 44 378 )" />
  </g>
</svg>