<?xml version="1.0" encoding="utf-8"?>
<svg version="1.1" xmlns:xlink="http://www.w3.org/1999/xlink" width="8px" height="14px" xmlns="http://www.w3.org/2000/svg">
  <g transform="matrix(1 0 0 1 -24 -378 )">
    <path d="M 7.93570370370371 2.54309489051093  C 7.93570370370371 1.52262773722623  7.30696296296297 0.620189781021907  6.37135802469136 0.297372262773706  C 6.36602469135802 0.295532846715332  5.78449382716049 0.110875912408744  5.78449382716049 0.110875912408744  C 5.57382716049382 0.0443503649634636  5.34528395061729 0.0853284671533174  5.16888888888889 0.221854014598534  L 4.00928395061728 1.12020437956204  L 2.84967901234567 0.221854014598534  C 2.67338271604939 0.0852262773723282  2.44444444444444 0.0442481751824744  2.23407407407408 0.110875912408744  C 2.23407407407408 0.110875912408744  1.65254320987655 0.295532846715332  1.64720987654321 0.297372262773706  C 0.711506172839506 0.620189781021907  0.0828641975308706 1.52262773722623  0.0828641975308706 2.54309489051093  L 0.0828641975308706 6.15335766423357  C 0.0828641975308706 6.2926423357664  0.122172839506181 6.42886131386859  0.196246913580239 6.54515328467159  L 1.36641975308642 8.38773722627735  L 1.36641975308642 13.2266277372263  C 1.36641975308642 13.6207737226277  1.67516049382717 13.9402189781022  2.05609876543211 13.9402189781022  L 5.96246913580247 13.9402189781022  C 6.34340740740741 13.9402189781022  6.65214814814815 13.6207737226277  6.65214814814815 13.2266277372263  L 6.65214814814815 8.38773722627735  L 7.82232098765432 6.54515328467159  C 7.89629629629629 6.42875912408761  7.93570370370371 6.29254014598541  7.93570370370371 6.15335766423357  L 7.93570370370371 2.54309489051093  Z " fill-rule="nonzero" fill="#666666" stroke="none" transform="matrix(1 0 0 1 24 378 )" />
  </g>
</svg>