<?xml version="1.0" encoding="utf-8"?>
<svg version="1.1" xmlns:xlink="http://www.w3.org/1999/xlink" width="10px" height="18px" xmlns="http://www.w3.org/2000/svg">
  <g transform="matrix(1 0 0 1 -32 -376 )">
    <path d="M 9.98825242718448 2.77344385026737  C 9.98815533980581 1.66937967914436  9.27252427184466 0.690352941176457  8.2142718446602 0.346620320855664  L 8.20941747572815 0.345080213903771  L 7.37417475728155 0.0909625668448939  C 7.24242718446602 0.0508235294117299  7.10165048543688 0.119935828877033  7.0542718446602 0.248823529411766  L 5.29796116504855 5.0265240641711  C 5.19660194174757 5.30210695187168  4.80349514563106 5.30210695187168  4.70213592233009 5.0265240641711  L 2.94582524271843 0.248823529411766  C 2.90757281553399 0.144770053475952  2.80854368932038 0.0795080213904384  2.70233009708739 0.0795080213904384  C 2.6771844660194 0.0795080213904384  1.79165048543688 0.344695187165826  1.79165048543688 0.344695187165826  C 0.72466019417476 0.697187165775404  0.0118446601941784 1.67785026737965  0.0118446601941784 2.78672727272726  L 0.0118446601941784 7.84078074866312  C 0.0118446601941784 7.89093048128342  0.0266990291262132 7.94002139037434  0.0544660194174824 7.98198930481288  L 1.88708737864078 10.7468663101604  L 1.88708737864078 17.7428021390375  C 1.88708737864078 17.8848770053476  2.00320388349515 18  2.14650485436893 18  L 7.8535922330097 18  C 7.99689320388349 18  8.11300970873786 17.8848770053476  8.11300970873786 17.7428021390375  L 8.11300970873786 10.7468663101604  L 9.94563106796116 7.98198930481288  C 9.97339805825243 7.94002139037434  9.98825242718448 7.89093048128342  9.98825242718448 7.84078074866312  L 9.98825242718448 2.77344385026737  Z " fill-rule="nonzero" fill="#666666" stroke="none" transform="matrix(1 0 0 1 32 376 )" />
  </g>
</svg>