<?xml version="1.0" encoding="utf-8"?>
<svg version="1.1" xmlns:xlink="http://www.w3.org/1999/xlink" width="1px" height="4px" xmlns="http://www.w3.org/2000/svg">
  <g transform="matrix(1 0 0 1 -37 -376 )">
    <path d="M 0.945352941176481 0.577238095238101  C 0.993705882352941 0.44171428571434  0.983823529411765 0.268285714285696  0.915764705882353 0.14819047619045  C 0.87182352941177 0.070666666666682  0.807529411764705 0.0316190476190172  0.742470588235292 0.0316190476190172  L 0.257470588235293 0.0316190476190172  C 0.192470588235295 0.0316190476190172  0.12817647058823 0.070666666666682  0.0841764705882326 0.14819047619045  C 0.0161176470588202 0.268285714285696  0.00623529411764423 0.44171428571434  0.0545294117647046 0.577238095238101  L 0.313764705882349 1.21000000000004  L 0.192411764705881 2.86761904761903  L 0.431411764705885 3.89695238095237  C 0.45470588235294 4.00047619047615  0.545117647058831 4.00047619047615  0.5684705882353 3.89695238095237  L 0.80747058823529 2.86761904761903  L 0.686117647058822 1.21000000000004  L 0.945352941176481 0.577238095238101  Z " fill-rule="nonzero" fill="#666666" stroke="none" transform="matrix(1 0 0 1 37 376 )" />
  </g>
</svg>