<?xml version="1.0" encoding="utf-8"?>
<svg version="1.1" xmlns:xlink="http://www.w3.org/1999/xlink" width="26px" height="22px" xmlns="http://www.w3.org/2000/svg">
  <g transform="matrix(1 0 0 1 -24 -487 )">
    <path d="M 10.5790816326531 19.496140625  C 10.5680272108844 19.5572135416667  10.5790816326531 19.6321666666668  10.6122448979592 19.721  C 10.6122448979592 19.7654166666666  10.6177721088435 19.8764583333334  10.6288265306122 20.054125  C 10.639880952381 20.2317916666666  10.6426445578231 20.3789218749999  10.6371173469388 20.4955156250001  C 10.6315901360544 20.612109375  10.6150085034014 20.7425833333333  10.5873724489796 20.8869375  C 10.5597363945578 21.0312916666667  10.5044642857143 21.1395572916667  10.421556122449 21.211734375  C 10.3386479591837 21.2839114583334  10.2253401360544 21.3199999999999  10.0816326530612 21.3199999999999  L 4.77551020408163 21.3199999999999  C 3.46003401360544 21.3199999999999  2.33524659863946 20.8508489583334  1.40114795918367 19.912546875  C 0.467049319727892 18.9742447916667  0 17.8443958333334  0 16.523  L 0 4.79699999999991  C 0 3.4756041666667  0.467049319727892 2.34575520833323  1.40114795918367 1.40745312500007  C 2.33524659863946 0.469151041666578  3.46003401360544 0  4.77551020408163 0  L 10.0816326530612 0  C 10.2253401360544 0  10.3497023809524 0.0527447916666688  10.4547193877551 0.158234375000006  C 10.5597363945578 0.26372395833323  10.6122448979592 0.388645833333271  10.6122448979592 0.533000000000015  C 10.6122448979592 0.577416666666636  10.6177721088435 0.688458333333301  10.6288265306122 0.866125000000011  C 10.639880952381 1.04379166666661  10.6426445578231 1.19092187499996  10.6371173469388 1.30751562500006  C 10.6315901360544 1.42410937500006  10.6150085034014 1.55458333333331  10.5873724489796 1.69893749999994  C 10.5597363945578 1.84329166666669  10.5044642857143 1.95155729166675  10.421556122449 2.023734375  C 10.3386479591837 2.09591145833338  10.2253401360544 2.13199999999995  10.0816326530612 2.13199999999995  L 4.77551020408163 2.13199999999995  C 4.04591836734694 2.13199999999995  3.42134353741497 2.39294791666657  2.90178571428572 2.91484375000005  C 2.38222789115646 3.43673958333341  2.12244897959183 4.06412499999999  2.12244897959183 4.79699999999991  L 2.12244897959183 16.523  C 2.12244897959183 17.2558749999999  2.38222789115646 17.8832604166666  2.90178571428572 18.40515625  C 3.42134353741497 18.9270520833334  4.04591836734694 19.188  4.77551020408163 19.188  L 9.55102040816326 19.188  L 9.73341836734694 19.188  L 9.94897959183674 19.188  C 9.94897959183674 19.188  10.0125425170068 19.1935520833333  10.1396683673469 19.20465625  C 10.2667942176871 19.2157604166667  10.3303571428571 19.2324166666667  10.3303571428571 19.254625  C 10.3303571428571 19.2768333333332  10.374574829932 19.3073697916666  10.4630102040816 19.346234375  C 10.5514455782313 19.3850989583333  10.5901360544218 19.4350677083332  10.5790816326531 19.496140625  Z M 25.6849489795918 9.91046875000006  C 25.8949829931973 10.1214479166667  26 10.3712916666666  26 10.6600000000001  C 26 10.9487083333333  25.8949829931973 11.1985520833333  25.6849489795918 11.40953125  L 16.6645408163265 20.47053125  C 16.4545068027211 20.6815104166667  16.2057823129252 20.787  15.9183673469388 20.787  C 15.6309523809524 20.787  15.3822278911565 20.6815104166667  15.172193877551 20.47053125  C 14.9621598639456 20.2595520833333  14.8571428571429 20.0097083333333  14.8571428571429 19.721  L 14.8571428571429 14.9240000000001  L 7.42857142857143 14.9240000000001  C 7.14115646258504 14.9240000000001  6.89243197278912 14.8185104166666  6.68239795918368 14.60753125  C 6.47236394557823 14.3965520833334  6.36734693877551 14.1467083333333  6.36734693877551 13.8579999999999  L 6.36734693877551 7.46199999999999  C 6.36734693877551 7.17329166666673  6.47236394557823 6.92344791666665  6.68239795918368 6.71246874999997  C 6.89243197278912 6.50148958333329  7.14115646258504 6.39599999999996  7.42857142857143 6.39599999999996  L 14.8571428571429 6.39599999999996  L 14.8571428571429 1.59900000000005  C 14.8571428571429 1.31029166666667  14.9621598639456 1.06044791666659  15.172193877551 0.849468750000028  C 15.3822278911565 0.638489583333353  15.6309523809524 0.533000000000015  15.9183673469388 0.533000000000015  C 16.2057823129252 0.533000000000015  16.4545068027211 0.638489583333353  16.6645408163265 0.849468750000028  L 25.6849489795918 9.91046875000006  Z " fill-rule="nonzero" fill="#666666" stroke="none" transform="matrix(1 0 0 1 24 487 )" />
  </g>
</svg>