<?xml version="1.0" encoding="utf-8"?>
<svg version="1.1" xmlns:xlink="http://www.w3.org/1999/xlink" width="20px" height="20px" xmlns="http://www.w3.org/2000/svg">
  <g transform="matrix(1 0 0 1 -232 -33 )">
    <path d="M 19.55078125 11.7826935588809  C 19.6332465277778 11.8651051832574  19.6744791666666 11.9626978963348  19.6744791666666 12.0754716981132  C 19.6744791666666 12.1188462372587  19.6701388888889 12.1492084146606  19.6614583333334 12.1665582303188  C 19.1059027777778 14.4914335285188  17.9427083333334 16.3760572543917  16.171875 17.8204294079376  C 14.4010416666666 19.2648015614834  12.3263888888889 19.9869876382564  9.94791666666663 19.9869876382564  C 8.68055555555554 19.9869876382564  7.45442708333337 19.748427672956  6.26953125 19.2713077423552  C 5.08463541666663 18.7941878117545  4.02777777777783 18.1132075471698  3.09895833333337 17.2283669486012  L 1.41927083333337 18.9069616135329  C 1.25434027777783 19.0717848622858  1.05902777777783 19.1541964866623  0.833333333333371 19.1541964866623  C 0.607638888888914 19.1541964866623  0.412326388888914 19.0717848622858  0.247395833333371 18.9069616135329  C 0.0824652777778283 18.7421383647799  0 18.546952938625  0 18.3214053350683  L 0 12.4918672739102  C 0 12.2663196703535  0.0824652777778283 12.0711342441986  0.247395833333371 11.9063109954457  C 0.412326388888914 11.7414877466927  0.607638888888914 11.6590761223162  0.833333333333371 11.6590761223162  L 6.66666666666663 11.6590761223162  C 6.89236111111109 11.6590761223162  7.08767361111109 11.7414877466927  7.25260416666663 11.9063109954457  C 7.41753472222217 12.0711342441986  7.5 12.2663196703535  7.5 12.4918672739102  C 7.5 12.7174148774669  7.41753472222217 12.9126003036218  7.25260416666663 13.0774235523748  L 5.46875 14.8601171112557  C 6.08506944444446 15.4326610279766  6.78385416666663 15.8750813272609  7.56510416666663 16.1873780091086  C 8.34635416666663 16.4996746909564  9.15798611111109 16.6558230318803  10 16.6558230318803  C 11.1631944444445 16.6558230318803  12.2482638888889 16.3738885274344  13.2552083333334 15.8100195185426  C 14.2621527777778 15.2461505096508  15.0694444444445 14.469746258946  15.6770833333334 13.4808067664281  C 15.7725694444445 13.3333333333333  16.0026041666666 12.8258512253307  16.3671875 11.9583604424203  C 16.4366319444445 11.7588375623509  16.5668402777778 11.6590761223162  16.7578125 11.6590761223162  L 19.2578125 11.6590761223162  C 19.3706597222222 11.6590761223162  19.4683159722222 11.7002819345044  19.55078125 11.7826935588809  Z M 19.7526041666666 1.08002602472348  C 19.9175347222222 1.24484927347646  20 1.44003469963133  20 1.66558230318802  L 20 7.49512036434612  C 20 7.72066796790284  19.9175347222222 7.91585339405768  19.7526041666666 8.08067664281066  C 19.5876736111111 8.24549989156364  19.3923611111111 8.32791151594014  19.1666666666666 8.32791151594014  L 13.3333333333334 8.32791151594014  C 13.1076388888889 8.32791151594014  12.9123263888889 8.24549989156364  12.7473958333334 8.08067664281066  C 12.5824652777778 7.91585339405768  12.5 7.72066796790284  12.5 7.49512036434612  C 12.5 7.2695727607894  12.5824652777778 7.07438733463457  12.7473958333334 6.90956408588158  L 14.5442708333334 5.113858165257  C 13.2595486111111 3.92539579266969  11.7447916666666 3.33116460637606  10 3.33116460637606  C 8.83680555555554 3.33116460637606  7.75173611111109 3.61309911082193  6.74479166666663 4.17696811971373  C 5.73784722222217 4.74083712860551  4.93055555555554 5.51724137931035  4.32291666666663 6.50618087182824  C 4.22743055555554 6.65365430492301  3.99739583333337 7.1611364129256  3.6328125 8.02862719583604  C 3.56336805555554 8.22815007590543  3.43315972222217 8.32791151594014  3.2421875 8.32791151594014  L 0.651041666666629 8.32791151594014  C 0.538194444444457 8.32791151594014  0.440538194444457 8.28670570375189  0.358072916666629 8.20429407937542  C 0.275607638888914 8.12188245499891  0.234375 8.02428974192148  0.234375 7.91151594014315  L 0.234375 7.82042940793755  C 0.798611111111086 5.49555410973758  1.97048611111109 3.61093038386468  3.75 2.1665582303188  C 5.52951388888891 0.722186076772942  7.61284722222217 0  10 0  C 11.2673611111111 0  12.5 0.240728692257647  13.6979166666666 0.722186076772942  C 14.8958333333334 1.20364346128824  15.9592013888889 1.88245499891565  16.8880208333334 2.75862068965517  L 18.5807291666666 1.08002602472348  C 18.7456597222222 0.915202775970499  18.9409722222222 0.832791151594023  19.1666666666666 0.832791151594023  C 19.3923611111111 0.832791151594023  19.5876736111111 0.915202775970499  19.7526041666666 1.08002602472348  Z " fill-rule="nonzero" fill="#ffffff" stroke="none" transform="matrix(1 0 0 1 232 33 )" />
  </g>
</svg>