<?xml version="1.0" encoding="utf-8"?>
<svg version="1.1" xmlns:xlink="http://www.w3.org/1999/xlink" width="80px" height="64px" xmlns="http://www.w3.org/2000/svg">
  <g transform="matrix(1 0 0 1 -35 -14 )">
    <path d="M 24.3333333333333 13  C 25.8888888888889 14.5555555555555  26.6666666666667 16.4444444444444  26.6666666666667 18.6666666666667  C 26.6666666666667 20.8888888888889  25.8888888888889 22.7777777777778  24.3333333333333 24.3333333333333  C 22.7777777777778 25.8888888888889  20.8888888888889 26.6666666666667  18.6666666666667 26.6666666666667  C 16.4444444444445 26.6666666666667  14.5555555555555 25.8888888888889  13 24.3333333333333  C 11.4444444444445 22.7777777777778  10.6666666666667 20.8888888888889  10.6666666666667 18.6666666666667  C 10.6666666666667 16.4444444444444  11.4444444444445 14.5555555555555  13 13  C 14.5555555555555 11.4444444444444  16.4444444444445 10.6666666666667  18.6666666666667 10.6666666666667  C 20.8888888888889 10.6666666666667  22.7777777777778 11.4444444444444  24.3333333333333 13  Z M 52 17.3333333333333  L 69 34.6666666666667  L 69 53  L 10.6666666666667 53  L 10.6666666666667 45.3333333333333  L 24 32  L 30.6666666666667 38.6666666666667  L 52 17.3333333333333  Z M 74.2708333333333 5.72916666666666  C 74.0069444444445 5.46527777777777  73.6944444444445 5.33333333333334  73.3333333333333 6  L 6.66666666666666 6  C 6.30555555555554 5.33333333333334  5.99305555555554 5.46527777777777  5.72916666666666 5.72916666666666  C 5.46527777777777 5.99305555555554  5.33333333333334 6.30555555555554  6 6.66666666666666  L 6 57.3333333333333  C 5.33333333333334 57.6944444444445  5.46527777777777 58.0069444444445  5.72916666666666 58.2708333333333  C 5.99305555555554 58.5347222222222  6.30555555555554 58.6666666666667  6.66666666666666 58  L 73.3333333333333 58  C 73.6944444444445 58.6666666666667  74.0069444444445 58.5347222222222  74.2708333333333 58.2708333333333  C 74.5347222222222 58.0069444444445  74.6666666666667 57.6944444444445  74 57.3333333333333  L 74 6.66666666666666  C 74.6666666666667 6.30555555555554  74.5347222222222 5.99305555555554  74.2708333333333 5.72916666666666  Z M 78.0416666666667 1.95833333333334  C 79.3472222222222 3.26388888888889  80 4.83333333333334  80 6.66666666666666  L 80 57.3333333333333  C 80 59.1666666666667  79.3472222222222 60.7361111111111  78.0416666666667 62.0416666666667  C 76.7361111111111 63.3472222222222  75.1666666666667 64  73.3333333333333 64  L 6.66666666666666 64  C 4.83333333333334 64  3.26388888888889 63.3472222222222  1.95833333333334 62.0416666666667  C 0.652777777777771 60.7361111111111  0 59.1666666666667  0 57.3333333333333  L 0 6.66666666666666  C 0 4.83333333333334  0.652777777777771 3.26388888888889  1.95833333333334 1.95833333333334  C 3.26388888888889 0.652777777777771  4.83333333333334 0  6.66666666666666 0  L 73.3333333333333 0  C 75.1666666666667 0  76.7361111111111 0.652777777777771  78.0416666666667 1.95833333333334  Z " fill-rule="nonzero" fill="#0099ff" stroke="none" transform="matrix(1 0 0 1 35 14 )" />
  </g>
</svg>