<?xml version="1.0" encoding="utf-8"?>
<svg version="1.1" xmlns:xlink="http://www.w3.org/1999/xlink" width="28px" height="28px" xmlns="http://www.w3.org/2000/svg">
  <g transform="matrix(1 0 0 1 -9 -86 )">
    <path d="M 27.328 14  C 27.328 6.639  21.361 0.672000000000001  14 0.672  C 6.639 0.672  0.672000000000001 6.639  0.672000000000001 14  C 0.672000000000001 21.361  6.64 27.328  14 27.328  C 21.361 27.328  27.328 21.361  27.328 14  Z M 26.262 14  C 26.262 20.761  20.762 26.262  14 26.262  C 7.239 26.262  1.738 20.761  1.738 14  C 1.738 7.239  7.238 1.738  14 1.738  C 20.761 1.738  26.262 7.239  26.262 14  Z " fill-rule="nonzero" fill="#0099ff" stroke="none" transform="matrix(1 0 0 1 9 86 )" />
  </g>
</svg>