<?xml version="1.0" encoding="utf-8"?>
<svg version="1.1" xmlns:xlink="http://www.w3.org/1999/xlink" width="16px" height="11px" xmlns="http://www.w3.org/2000/svg">
  <g transform="matrix(1 0 0 1 -16 -95 )">
    <path d="M 13.666 0.239999999999997  L 13.667 0.241  L 5.108 8.54  L 2.11 5.542  C 1.798 5.23  1.292 5.23  0.979000000000003 5.542  C 0.666000000000002 5.854  0.667000000000003 6.36  0.979000000000003 6.673  L 4.534 10.228  C 4.69 10.384  4.895 10.462  5.099 10.462  C 5.299 10.462  5.5 10.387  5.655 10.237  L 14.779 1.389  C 15.096 1.081  15.104 0.574999999999998  14.797 0.257999999999997  C 14.488 -0.0600000000000023  13.983 -0.0670000000000019  13.666 0.239999999999997  Z " fill-rule="nonzero" fill="#0099ff" stroke="none" transform="matrix(1 0 0 1 16 95 )" />
  </g>
</svg>