<?xml version="1.0" encoding="utf-8"?>
<svg version="1.1" xmlns:xlink="http://www.w3.org/1999/xlink" width="51px" height="51px" xmlns="http://www.w3.org/2000/svg">
  <g transform="matrix(1 0 0 1 -128 0 )">
    <path d="M 50.728 25.5  C 50.728 11.5666785714286  39.4333214285714 0.271999999999991  25.5 0.271999999999991  C 11.5666785714286 0.271999999999991  0.271999999999991 11.5666785714286  0.271999999999991 25.5  C 0.271999999999991 39.4333214285714  11.5685714285714 50.728  25.5 50.728  C 39.4333214285714 50.728  50.728 39.4333214285714  50.728 25.5  Z M 48.7102142857143 25.5  C 48.7102142857143 38.2976071428571  38.2995 48.7102142857143  25.5 48.7102142857143  C 12.7023928571429 48.7102142857143  2.2897857142857 38.2976071428571  2.2897857142857 25.5  C 2.2897857142857 12.7023928571429  12.7005 2.2897857142857  25.5 2.2897857142857  C 38.2976071428571 2.2897857142857  48.7102142857143 12.7023928571429  48.7102142857143 25.5  Z " fill-rule="nonzero" fill="#0099ff" stroke="none" transform="matrix(1 0 0 1 128 0 )" />
  </g>
</svg>