<?xml version="1.0" encoding="utf-8"?>
<svg version="1.1" xmlns:xlink="http://www.w3.org/1999/xlink" width="28px" height="20px" xmlns="http://www.w3.org/2000/svg">
  <g transform="matrix(1 0 0 1 -141 -16 )">
    <path d="M 24.62375 0.458181818181799  L 24.625625 0.460090909090923  L 8.57750000000001 16.3036363636364  L 2.95625000000001 10.5801818181818  C 2.37125 9.98454545454547  1.42250000000001 9.98454545454547  0.835624999999993 10.5801818181818  C 0.248750000000001 11.1758181818182  0.250625000000014 12.1418181818182  0.835624999999993 12.7393636363636  L 7.50125 19.5261818181818  C 7.79375000000002 19.824  8.17812499999999 19.9729090909091  8.56062500000002 19.9729090909091  C 8.93562500000002 19.9729090909091  9.3125 19.8297272727273  9.60312500000001 19.5433636363636  L 26.710625 2.65172727272727  C 27.305 2.06372727272725  27.32 1.09772727272724  26.744375 0.49254545454545  C 26.165 -0.114545454545464  25.218125 -0.1279090909091  24.62375 0.458181818181799  Z " fill-rule="nonzero" fill="#0099ff" stroke="none" transform="matrix(1 0 0 1 141 16 )" />
  </g>
</svg>