<?xml version="1.0" encoding="utf-8"?>
<svg version="1.1" xmlns:xlink="http://www.w3.org/1999/xlink" width="10px" height="6px" xmlns="http://www.w3.org/2000/svg">
  <g transform="matrix(1 0 0 1 -314 -434 )">
    <path d="M 9.89979959919839 0.597938144329902  C 9.96659986639946 0.66437571592212  10 0.740778923253146  10 0.827147766323037  C 10 0.9135166093929  9.96659986639946 0.989919816723955  9.89979959919839 1.05635738831614  L 5.2304609218437 5.7003436426117  C 5.16366065464263 5.76678121420389  5.08684034736143 5.80000000000001  5 5.80000000000001  C 4.91315965263857 5.80000000000001  4.83633934535737 5.76678121420389  4.7695390781563 5.7003436426117  L 0.100200400801612 1.05635738831614  C 0.0334001336005372 0.989919816723955  0 0.9135166093929  0 0.827147766323037  C 0 0.740778923253146  0.0334001336005372 0.66437571592212  0.100200400801612 0.597938144329902  L 0.601202404809612 0.0996563573883122  C 0.668002672010687 0.033218785796123  0.744822979291939 0  0.831663326653313 0  C 0.918503674014687 0  0.995323981295883 0.033218785796123  1.06212424849696 0.0996563573883122  L 5 4.01615120274914  L 8.93787575150304 0.0996563573883122  C 9.00467601870406 0.033218785796123  9.08149632598531 0  9.16833667334669 0  C 9.25517702070806 0  9.33199732798931 0.033218785796123  9.39879759519039 0.0996563573883122  L 9.89979959919839 0.597938144329902  Z " fill-rule="nonzero" fill="#666666" stroke="none" transform="matrix(1 0 0 1 314 434 )" />
  </g>
</svg>